<svg xmlns="http://www.w3.org/2000/svg" viewBox="0 0 322.7 786.95"><defs><style>.cls-1{fill:#010101;}.cls-2{fill:#fad737;}.cls-3{fill:#385688;}.cls-4{fill:#bcbcbc;}.cls-5{fill:#bbb;}.cls-6{fill:#fad837;}.cls-7{fill:#f9d737;}.cls-8{fill:#f7d537;}.cls-9{fill:#3a5888;}.cls-10{fill:#3f5a84;}.cls-11{fill:#404141;}.cls-12{fill:#f6f6f6;}.cls-13{fill:#f5f5f5;}.cls-14{fill:#afaeae;}.cls-15{fill:#adadad;}.cls-16{fill:#ff8e05;}.cls-17{fill:#010100;}.cls-18{fill:#1d233e;}.cls-19{fill:#fff;}.cls-20{fill:#dedede;}.cls-21{fill:#777;}.cls-22{fill:#767676;}.cls-23{fill:#fa8800;}.cls-24{fill:#535353;}.cls-25{fill:#a9abab;}.cls-26{fill:#8d8d8d;}.cls-27{fill:#525151;}</style></defs><g id="Layer_2" data-name="Layer 2"><g id="Layer_1-2" data-name="Layer 1"><path class="cls-1" d="M25.32,95.52c-2.63,0-5,0-7.39,0A17.94,17.94,0,0,1,1,83.24,17.44,17.44,0,0,1,0,77.74C0,73.81,0,69.88,0,66A18,18,0,0,1,14.91,48.46a24.83,24.83,0,0,1,3.46-.23c2,0,4,0,6,0,.25,0,.5-.06.86-.1a12.26,12.26,0,0,0,.14-1.3c0-3.29,0-6.57,0-9.86A37,37,0,0,1,53.92.94,37.74,37.74,0,0,1,62.73,0q62.88,0,125.78,0h72.84a35.89,35.89,0,0,1,22.86,8,36.37,36.37,0,0,1,13.61,23.28,41,41,0,0,1,.44,5.77c.06,3.15,0,6.31,0,9.46,0,.51.05,1,.08,1.6.5,0,.94.11,1.37.11,1.87,0,3.74,0,5.6,0a17.89,17.89,0,0,1,16.72,13.15,16.56,16.56,0,0,1,.63,4.38c0,4,.05,8.11,0,12.17a17.82,17.82,0,0,1-14.43,17.22,23.31,23.31,0,0,1-3.45.35c-1.8,0-3.6,0-5.4,0l-1.05,0c0,.47-.06.84-.06,1.21,0,.57,0,1.15,0,1.73q0,325.28,0,650.54a39.44,39.44,0,0,1-1.9,12.53,37,37,0,0,1-27.29,24.54,35.69,35.69,0,0,1-7.28.81h-4.63q-97.18,0-194.37,0a35.47,35.47,0,0,1-12.69-2.07C37,779.91,29,770.51,26,756.81a28.19,28.19,0,0,1-.59-6.15c0-1,0-1.93,0-2.89V98.2C25.37,97.38,25.34,96.55,25.32,95.52Zm16.2,503.93c0,.7-.1,1.41-.1,2.11v68.49c0,.64.06,1.28.09,1.92s-.07,1.41-.07,2.11V713c0,2.57,0,5.14,0,7.71a2.41,2.41,0,0,0-.07.37c0,9.7,0,19.4,0,29.1a20.44,20.44,0,0,0,2.24,9.08,6.53,6.53,0,0,0,.68.91,9.67,9.67,0,0,0,.65,1.38,20.76,20.76,0,0,0,8,7.09,21,21,0,0,0,9.29,2.25c3,0,5.93,0,8.89,0H259.33a35.17,35.17,0,0,0,4.81-.27,20.41,20.41,0,0,0,14.65-9.35,8.31,8.31,0,0,0,.6-1.4,7.66,7.66,0,0,0,.74-1.08,20.73,20.73,0,0,0,2-8.94c0-6.93,0-13.87,0-20.8,0-.7,0-1.41-.05-2.11,0-.52.05-1,.05-1.54q0-17.8,0-35.62c0-.38,0-.76-.07-1.14,0-.64.09-1.29.09-1.93V610.54c0-.71-.07-1.41-.11-2.11s.09-1.29.09-1.93q0-11.76,0-23.52c0-.45,0-.9-.06-1.34,0-.71.06-1.42.06-2.13V438.87c0-.71,0-1.41-.06-2.12s.06-1.28.06-1.92q0-11.07,0-22.13c0-.83,0-1.67,0-2.5s.06-1.42.06-2.12V328.29c0-.7-.07-1.41-.11-2.11s.09-1.54.09-2.31q0-89.78,0-179.56c0-.64,0-1.28-.06-1.93s.08-1.41.08-2.11V53.48c0-.71-.06-1.41-.09-2.12a5.54,5.54,0,0,0,.07-.57c0-5,0-9.92,0-14.87a14.52,14.52,0,0,0-.35-2.86C280.08,25.24,275.41,20,268,17.2A23.41,23.41,0,0,0,259.64,16H64c-.33,0-.65,0-1,0a27.89,27.89,0,0,0-5.54.68c-8.05,2.21-13.28,7.28-15.45,15.39a20.42,20.42,0,0,0-.68,5.34V52.06c0,.58.07,1.16.11,1.73s-.08,1.41-.08,2.12v80.46c0,.7.06,1.41.08,2.11s-.06,1.16-.06,1.74q0,85,0,170c0,.63.07,1.27.11,1.91s-.13,1.54-.13,2.3V386c0,.71,0,1.42,0,2.12l0,.65c0,.64-.09,1.28-.09,1.92v37.17c0,.64.08,1.28.12,1.92v.86c0,.83-.06,1.67-.06,2.51V573.87c0,.78,0,1.55,0,2.32a3.72,3.72,0,0,0-.08.57q0,10.49,0,21C41.4,598.3,41.47,598.88,41.52,599.45ZM25.33,79.21c.05-.64.12-1.08.12-1.52,0-3.85,0-7.7,0-11.56,0-.25,0-.51,0-.77-.06-.77-.32-1-1.05-1.11a5.43,5.43,0,0,0-.57,0c-1.74,0-3.47,0-5.21,0a2.14,2.14,0,0,0-2.42,2.5c0,.32,0,.64,0,1V74c0,1.09,0,2.18,0,3.28,0,1.4.59,2,2,2,1.8,0,3.6,0,5.4,0C24.12,79.3,24.63,79.25,25.33,79.21Zm273.16,0a5.41,5.41,0,0,0,.84.14h5a5.62,5.62,0,0,0,.58,0,1.64,1.64,0,0,0,1.52-1.47,6.12,6.12,0,0,0,0-1V66.66c0-.26,0-.51,0-.77a1.44,1.44,0,0,0-1.09-1.42,5.47,5.47,0,0,0-1.5-.24c-1.41,0-2.82,0-4.23,0-.37,0-.74.08-1.18.12a9.55,9.55,0,0,0-.15,1C298.14,69.1,298.25,77.56,298.49,79.16Z"/><path class="cls-2" d="M279.39,759.9a8.57,8.57,0,0,1-.6,1.39,20.41,20.41,0,0,1-14.65,9.35,35.17,35.17,0,0,1-4.81.27H71.18c-3,0-5.92,0-8.89,0A21,21,0,0,1,53,768.66a20.76,20.76,0,0,1-8-7.09,9.67,9.67,0,0,1-.65-1.38,4.91,4.91,0,0,0,.5-.28q5.76-4,11.5-8.1a10.44,10.44,0,0,0,1-.89l.25-.42v0a7.11,7.11,0,0,0,1.38-.6c4.62-3.25,9.21-6.53,13.83-9.77,1.47-1,3-1.93,4.53-2.89.7.07,1.39.2,2.09.21,5.07,0,10.14,0,15.21,0,1.8,0,3.59.06,5.39.09a2.6,2.6,0,0,0,.71.2q3,0,6,0a2.15,2.15,0,0,0,.68-.27l14.94,0a1.52,1.52,0,0,0,1.26.33c1.35,0,2.7,0,4.05,0,.63,0,1.26-.12,1.89-.18h15.57a2.91,2.91,0,0,0,.56.15c1.92,0,3.85,0,5.77,0a2.76,2.76,0,0,0,.87-.31l5.54,0,9.35.07a2.77,2.77,0,0,0,.72.2q3,0,6,0a2.77,2.77,0,0,0,.72-.2c.83,0,1.66-.09,2.49-.09H197a3.27,3.27,0,0,0,.88.3c1.8,0,3.59,0,5.39,0a2.76,2.76,0,0,0,.87-.31l14.94,0a2.94,2.94,0,0,0,.87.28c1.88,0,3.77,0,5.65,0a4.88,4.88,0,0,0,.9-.21c.83,0,1.67-.09,2.5-.09,4.48,0,9,0,13.44,0,1,0,1.91.17,2.86.26.34.28.66.6,1,.84q6.36,4.14,12.73,8.25a9.39,9.39,0,0,0,1.38.59v0l.27.37c.4.32.78.66,1.21.94q8.24,5.34,16.48,10.65C278.69,759.58,279.05,759.72,279.39,759.9ZM84.18,763.64H86.3c.64,0,1.28,0,1.92,0a2.38,2.38,0,0,0,2.6-2.65c0-.7,0-1.41,0-2.11a1.8,1.8,0,0,0-1-1.71,4.18,4.18,0,0,0-1.64-.44c-2.51-.05-5,0-7.51,0a6.61,6.61,0,0,0-1.31.26,2,2,0,0,0-1.62,1.92c-.09.63,0,1.28,0,1.92a2.61,2.61,0,0,0,2.88,2.84C81.73,763.58,83,763.64,84.18,763.64Zm156.89,0h2.12c.64,0,1.29,0,1.93,0a2.39,2.39,0,0,0,2.59-2.65c0-.71,0-1.41,0-2.12a1.77,1.77,0,0,0-1.06-1.7,4.13,4.13,0,0,0-1.64-.44c-2.5-.05-5,0-7.51,0a6.75,6.75,0,0,0-1.31.26,2,2,0,0,0-1.61,1.92c-.09.63,0,1.29,0,1.93a2.61,2.61,0,0,0,2.88,2.83C238.63,763.58,239.85,763.64,241.07,763.64Z"/><path class="cls-3" d="M41.5,53.79c0-.57-.11-1.15-.11-1.73V37.39a20.42,20.42,0,0,1,.68-5.34c2.17-8.11,7.4-13.18,15.45-15.39A27.89,27.89,0,0,1,63.06,16c.32,0,.64,0,1,0H259.64A23.41,23.41,0,0,1,268,17.2c7.42,2.8,12.09,8,13.74,15.86a14.52,14.52,0,0,1,.35,2.86c0,4.95,0,9.91,0,14.87a5.54,5.54,0,0,1-.07.57,6.27,6.27,0,0,0-.75.17,174.56,174.56,0,0,0-22.94,9.62c-.57.29-1.16.54-1.75.8,0-3.47,0-7-.08-10.42a19.68,19.68,0,0,0-.51-4.19A14.19,14.19,0,0,0,250.5,39a12.89,12.89,0,0,0-7.89-2.67H82.88c-1,0-1.93,0-2.9,0a5.9,5.9,0,0,0-1.33.15,17.24,17.24,0,0,0-5.71,2.71A14,14,0,0,0,67.3,50c-.25,4.36,0,8.75,0,13.13l-.12,3.41a91.7,91.7,0,0,0-17.43-9.43C47,55.93,44.25,54.88,41.5,53.79ZM90.4,29.46H97c.78,0,1.55,0,2.32,0a4.61,4.61,0,0,0,1-9.09,8.09,8.09,0,0,0-1.91-.17h-16a8.71,8.71,0,0,0-1.35.05,4.64,4.64,0,0,0-3.24,7.31,4.45,4.45,0,0,0,3.8,1.92C84.48,29.45,87.44,29.46,90.4,29.46Zm142.23,0h4.24c1.74,0,3.48.05,5.21,0a4.47,4.47,0,0,0,4.1-3.73,4.61,4.61,0,0,0-2.83-5.14,6.4,6.4,0,0,0-2.46-.37c-5.4,0-10.8,0-16.2,0a8.72,8.72,0,0,0-1.35.06,4.59,4.59,0,0,0-3.94,4.13,4.44,4.44,0,0,0,3,4.81,7,7,0,0,0,2.09.27C227.23,29.47,229.93,29.46,232.63,29.46Z"/><path class="cls-4" d="M282.05,142.38c0,.65.06,1.29.06,1.93q0,89.77,0,179.56c0,.77-.06,1.54-.09,2.31-.17-.27-.36-.53-.5-.81-1.62-3.42-3.17-6.89-4.88-10.27-2-4-4.16-8-6.3-11.93-.76-1.41-1.66-2.73-2.5-4.09-.16-.56,0-1.26-.77-1.51a3.11,3.11,0,0,0-.22-.53c-2.1-3.44-4.2-6.89-6.32-10.32-1.34-2.18-2.72-4.33-4.09-6.5a10.25,10.25,0,0,1,1.13.2c3,.86,5.92,1.75,8.87,2.62.36.1.73.16,1.2.27,0-.47.1-.84.1-1.21,0-1.73,0-3.47,0-5.21q0-25.68,0-51.35a4.41,4.41,0,0,0-.15-2,135.83,135.83,0,0,0-14.16-3.39c0,.7,0,1.4,0,2.1v51c0,.76-.09,1.53-.13,2.3-2-2.78-3.91-5.57-5.89-8.34a13.74,13.74,0,0,0-1.16-1.26c0-.57,0-1.15,0-1.73q0-67.49,0-135c0-.71.07-1.41.11-2.12.5.1,1,.18,1.51.3a100,100,0,0,1,10.1,3.15A128.84,128.84,0,0,1,279.5,141C280.33,141.53,281.2,141.94,282.05,142.38Zm-14.5,60.44s.1-.09.11-.14a6.31,6.31,0,0,0,.08-.76q0-29.23,0-58.47a.45.45,0,0,0-.07-.18l-.1-.15c-2.13-.73-12.63-3.27-14-3.39-.28,1.81-.4,41-.17,57.67,0,.44.07.88.1,1.27C255.55,199.52,266.16,202.65,267.55,202.82Z"/><path class="cls-5" d="M41.55,312.15c0-.64-.11-1.28-.11-1.91q0-85,0-170c0-.58,0-1.16.06-1.74.64-.31,1.29-.59,1.91-.93A113,113,0,0,1,70.46,127c2.24-.55,4.53-.89,6.8-1.32,0,.84,0,1.67,0,2.51v78.6q0,24.53,0,49.06c-.32.39-.66.77-.94,1.18-1.74,2.52-3.45,5.06-5.19,7.57-.61.88-1.3,1.71-2,2.57,0-.77-.09-1.54-.09-2.31V222.16c0-.69,0-1.39,0-2.26-2.53.62-4.9,1.18-7.25,1.79s-4.74,1-7.1,1.88v45.27q0,6.46,0,12.94c0,.48.08,1,.13,1.53l4.22-1.08c-2.06,3.26-4.17,6.49-6.17,9.78-3.11,5.11-6.18,10.24-8.91,15.57C43.24,309.12,42.38,310.63,41.55,312.15ZM54.82,202.86c2-.35,12.82-3.59,14.25-4.28,0-.64.05-1.34.05-2v-40q0-7.74,0-15.46a2.88,2.88,0,0,0-.2-1.53c-4.74,1.2-9.43,2.26-14.09,3.55Z"/><path class="cls-4" d="M41.46,576.19c0-.77,0-1.54,0-2.32V433.13c0-.84,0-1.68.06-2.51l.6-.86a1.73,1.73,0,0,0,.31-.22c2.41-2.72,4.81-5.46,7.24-8.18,1.45-1.62,2.93-3.21,4.42-4.78.1-.11.44,0,.67,0,0,1.54,0,3.08,0,4.63s0,3.08,0,4.63a27.78,27.78,0,0,0,.15,4.63,6.89,6.89,0,0,0,.81-.13q6.28-1.86,12.55-3.74a5.19,5.19,0,0,0,.86-.46V403.38c0-.71.07-1.41.1-2.12,1.12-1,2.28-2,3.35-3.13,1.61-1.65,3.15-3.36,4.72-5,0,1.09,0,2.19,0,3.28V550.91c0,.71,0,1.42,0,2.13-2.12,1-4.23,2.07-6.35,3.09-.57.28-1.15.52-1.73.77,0-.7-.07-1.41-.07-2.12V516.62a60.38,60.38,0,0,0-7.24,1.65c-2.36.57-4.74,1.06-7.13,1.85v42.93c0,.78,0,1.55-.06,2.32a105.15,105.15,0,0,0-12.1,10.2A1.71,1.71,0,0,1,41.46,576.19ZM69,500.64c.19-1.93.16-57.41,0-58.91a3.13,3.13,0,0,0-.75,0L54.94,445a5.69,5.69,0,0,0-.19,2.18v33.22c0,7.59,0,15.19,0,22.78,0,.55-.18,1.15.22,1.64C56.79,504.51,67.51,501.3,69,500.64Z"/><path class="cls-4" d="M282.05,436.75c0,.71.06,1.41.06,2.12V579.51c0,.71,0,1.42-.06,2.12-.49-.49-1-1-1.47-1.48a69.09,69.09,0,0,0-9-9.08c-1.21-1-2.49-2-3.73-3,0-.77-.08-1.54-.08-2.31q0-21.81,0-43.62a5.47,5.47,0,0,0-.19-2.17l-13.26-3.29a3.56,3.56,0,0,0-.73,0,4.78,4.78,0,0,0-.18,2.14q0,18.81,0,37.64c0,.77-.05,1.54-.08,2.31-1.83-.94-3.65-1.88-5.49-2.8-.51-.25-1.07-.39-1.6-.59,0-.64,0-1.28,0-1.93q0-68.89,0-137.81,0-7.53,0-15.06c0-.76.12-1.53.19-2.29a3.68,3.68,0,0,1,.64.37c2.12,2,4.22,4,6.34,6,0,.71,0,1.41,0,2.12q0,8.85,0,17.71a3.16,3.16,0,0,0,.19,1.83,136.74,136.74,0,0,0,14.14,4.09c0-3.46.05-6.91.07-10.36a7.67,7.67,0,0,1,.92.66,100.81,100.81,0,0,1,9.94,11.41C279.78,433.68,280.92,435.21,282.05,436.75ZM267.54,445c-4.59-1.15-9.23-2.38-13.88-3.41a2.86,2.86,0,0,0-.17.28,1.61,1.61,0,0,0-.1.36c0,.26,0,.52,0,.78q0,28.68,0,57.36a.58.58,0,0,0,.06.17l.14.27c4.36,1.3,8.8,2.62,13.23,3.92a4.66,4.66,0,0,0,.75.09C267.83,502.87,267.79,446.66,267.54,445Z"/><path class="cls-6" d="M282.05,142.38c-.85-.44-1.72-.85-2.55-1.34a128.84,128.84,0,0,0-21.62-10.51,100,100,0,0,0-10.1-3.15c-.5-.12-1-.2-1.51-.3,0-.77-.1-1.54-.1-2.31q0-13.5,0-27c0-1.67,0-3.35,0-5l1.37-.64A14.16,14.16,0,0,0,256,82.23a17.28,17.28,0,0,0,.45-4c.05-4.62,0-9.24,0-13.86,0-.44-.07-.89-.1-1.33L256.6,62c.59-.26,1.18-.51,1.75-.8a174.56,174.56,0,0,1,22.94-9.62,6.27,6.27,0,0,1,.75-.17c0,.71.09,1.41.09,2.12v86.79C282.13,141,282.08,141.68,282.05,142.38Z"/><path class="cls-7" d="M77.26,125.66c-2.27.43-4.56.77-6.8,1.32a113,113,0,0,0-27,10.57c-.62.34-1.27.62-1.91.93,0-.7-.08-1.41-.08-2.11V55.91c0-.71,0-1.41.08-2.12,2.75,1.09,5.51,2.14,8.24,3.27a91.7,91.7,0,0,1,17.43,9.43c0,.71.08,1.42.08,2.12,0,3.47-.11,7,0,10.42.25,6.07,3.21,10.43,8.73,13l1.38.62c0,.77-.05,1.54-.05,2.32v28.35C77.35,124.12,77.29,124.89,77.26,125.66Z"/><path class="cls-3" d="M54.74,416.61c-.23,0-.57-.14-.67,0-1.49,1.57-3,3.16-4.42,4.78-2.43,2.72-4.83,5.46-7.24,8.18a1.73,1.73,0,0,1-.31.22h-.59c0-.64-.12-1.28-.12-1.92V390.67c0-.64.06-1.28.09-1.92l.21-.75h0c.38-.16.41-.47.39-.82.53-1.91,1-3.84,1.6-5.74,3.13-10.41,6.31-20.8,10-31,.31-.84.66-1.67,1-2.5.21,3.13-.08,6.28.17,9.48a2.82,2.82,0,0,0,.83.06c4.43-1.29,8.87-2.58,13.36-4,0-.78,0-1.48,0-2.18v-36.9c0-.7,0-1.41.06-2.12.33-.54.69-1.07,1-1.64Q73.6,303.84,77,297l.18.07.19-.05v94.49c0,.52-.05,1-.08,1.54-1.57,1.68-3.11,3.39-4.72,5-1.07,1.09-2.23,2.09-3.35,3.13,0-.77-.09-1.54-.09-2.31V369.44c0-.7,0-1.39,0-2.15a4,4,0,0,0-.87,0c-4.12,1-8.23,2-12.33,3.06a6.73,6.73,0,0,0-1.09.49v43.26C54.79,414.94,54.76,415.78,54.74,416.61Z"/><path class="cls-4" d="M41.46,720.73c0-2.57,0-5.14,0-7.71V674.08c0-.7.05-1.4.07-2.11,1.26-2.59,2.51-5.2,3.8-7.78q3.86-7.77,7.76-15.51c.46-.91,1.06-1.75,1.59-2.62,0,1.86.05,3.72.1,5.58a6.44,6.44,0,0,0,.17,1,146.91,146.91,0,0,0,14.19-4.33V625.54c0-.71,0-1.41.08-2.12.47-.5,1-1,1.42-1.51a31.06,31.06,0,0,1,6.65-6.2c0,.39,0,.77,0,1.16v70.48c0,.45,0,.9,0,1.35-.68.48-1.36.94-2,1.44q-3,2.34-6,4.7c0-.71-.08-1.41-.08-2.12V666.09c0-.7,0-1.4,0-2.24a62.67,62.67,0,0,0-7.23,1.66c-2.36.57-4.74,1-7.12,1.84v2.2q0,18.15,0,36.28c0,.84-.05,1.67-.08,2.51a3.64,3.64,0,0,0-.8.44c-.63.55-1.2,1.15-1.82,1.71a103.3,103.3,0,0,0-9.64,9.65A1.42,1.42,0,0,1,41.46,720.73Z"/><path class="cls-8" d="M77,297q-3.41,6.79-6.84,13.59c-.28.57-.64,1.1-1,1.64,0-.7-.07-1.41-.07-2.12,0-4.57,0-9.14,0-13.71,0-.63,0-1.26,0-1.95a7.57,7.57,0,0,0-1.07.08l-13,3.25a4.6,4.6,0,0,0-.23,2.22q0,22.68,0,45.38c0,.84,0,1.67,0,2.51-.33.83-.68,1.66-1,2.5-3.74,10.21-6.92,20.6-10,31-.57,1.9-1.07,3.83-1.6,5.74l-.39.82h0a.16.16,0,0,0-.23.1c0-.7,0-1.41,0-2.12V314.45c0-.76.09-1.53.13-2.3.83-1.52,1.69-3,2.48-4.57,2.73-5.33,5.8-10.46,8.91-15.57,2-3.29,4.11-6.52,6.17-9.78l9.94-3.08c0-.54.06-1,.06-1.41,0-2.06,0-4.11,0-6.17,0-1.47.06-2.94.09-4.42.65-.86,1.34-1.69,2-2.57,1.74-2.51,3.45-5.05,5.19-7.57.28-.41.62-.79.94-1.18,0,.7.06,1.41.06,2.12v36.62c0,.71,0,1.41,0,2.12Z"/><path class="cls-7" d="M282,608.43c0,.7.11,1.4.11,2.11v76.19c0,.64-.06,1.29-.09,1.93-.21-.46-.45-.91-.62-1.38A193.86,193.86,0,0,0,273,667.47c-2.16-4.37-4.34-8.73-6.49-13.1-.31-.63-.5-1.31-.75-2l1.86.31c.2-2.36.15-58.3-.06-59.84l-13.94-3.47a4,4,0,0,0-.25,2.17q0,18.72,0,37.44c0,.71-.06,1.41-.09,2.12-.69-.91-1.38-1.81-2.09-2.71l-4.95-6.27c0-.64-.07-1.28-.07-1.92q0-20.1,0-40.18c0-.64.05-1.28.07-1.92,2,.79,4,1.48,5.88,2.39a46.86,46.86,0,0,1,11,7.44c3.12,2.78,6.15,5.66,9.18,8.54a56.22,56.22,0,0,1,8.81,10.7C281.37,607.63,281.71,608,282,608.43Z"/><path class="cls-4" d="M246.24,622.16l4.95,6.27c.71.9,1.4,1.8,2.09,2.71,0,.64.09,1.28.09,1.92v13.51c0,.63,0,1.26,0,1.93.37.15.66.29,1,.38,3,.9,6,1.79,9.05,2.71.79.24,1.57.54,2.35.82.25.65.44,1.33.75,2,2.15,4.37,4.33,8.73,6.49,13.1a193.86,193.86,0,0,1,8.41,19.81c.17.47.41.92.62,1.38,0,.38.07.76.07,1.14q0,17.82,0,35.62c0,.51,0,1-.05,1.54-.74-.37-1.05-1.11-1.48-1.73a77.43,77.43,0,0,0-11.22-12.63,19,19,0,0,0-1.5-1.18c0-.77-.11-1.54-.11-2.31q0-19.87,0-39.74a4.41,4.41,0,0,0-.21-2.14c-2.3-.58-4.59-1.19-6.9-1.72a65.67,65.67,0,0,0-7.19-1.63c0,.84-.06,1.53-.06,2.23q0,15.72,0,31.45a3,3,0,0,1-.86-.35c-.7-.55-1.34-1.18-2.05-1.72-1.42-1.08-2.59-2.47-4.23-3.27,0-.58-.05-1.15-.05-1.73q0-33.19,0-66.4C246.16,623.45,246.21,622.81,246.24,622.16Z"/><path class="cls-9" d="M282.05,436.75c-1.13-1.54-2.27-3.07-3.41-4.61a100.81,100.81,0,0,0-9.94-11.41,7.67,7.67,0,0,0-.92-.66,2.47,2.47,0,0,1,0-.38q0-23.37,0-46.73v-2.1a22,22,0,0,0-4.71-1.37c-1.61-.44-3.24-.83-4.87-1.19a25.1,25.1,0,0,0-4.7-1c0,.84-.06,1.54-.06,2.24v33c0,.7-.06,1.41-.08,2.11-2.12-2-4.22-4-6.34-6a3.68,3.68,0,0,0-.64-.37c-.06-.77-.17-1.53-.17-2.3q0-41.82,0-83.64c0-.71.06-1.42.09-2.12.34.61.72,1.2,1,1.83,1.7,3.7,3.37,7.41,5.07,11.11.29.63.66,1.22,1,1.83,0,.71.07,1.41.07,2.11q0,12.14,0,24.25a4.15,4.15,0,0,0,.23,2.13c.51.17,1,.36,1.6.53l10.8,3.31c-.13.12-.39.25-.38.35a6.94,6.94,0,0,0,.28,1.11c1.38,4.28,2.81,8.53,4.13,12.83,3.76,12.2,7.47,24.41,11.21,36.61.21.67.52,1.3.78,1.94,0,.83,0,1.67,0,2.5q0,11.06,0,22.13C282.11,435.47,282.07,436.11,282.05,436.75Z"/><path class="cls-8" d="M54.66,646.06c-.53.87-1.13,1.71-1.59,2.62q-3.91,7.74-7.76,15.51c-1.29,2.58-2.54,5.19-3.8,7.78,0-.64-.09-1.28-.09-1.92V601.56c0-.7.06-1.41.09-2.11.15-.13.29-.25.43-.39a157.64,157.64,0,0,1,14.27-13.19,44.52,44.52,0,0,1,13.22-7.37c2.61-.89,5.24-1.7,7.87-2.55,0,.45,0,.9,0,1.35v36.87c0,.52,0,1-.08,1.54a31.06,31.06,0,0,0-6.65,6.2c-.44.53-1,1-1.42,1.51,0-.7-.08-1.41-.08-2.12q0-14.87,0-29.73a5.54,5.54,0,0,0-.18-2.18L54.81,592.9c0,.8-.06,1.49-.06,2.19v48.66C54.75,644.52,54.69,645.29,54.66,646.06Z"/><path class="cls-7" d="M282.07,410.2c-.26-.64-.57-1.27-.78-1.94-3.74-12.2-7.45-24.41-11.21-36.61-1.32-4.3-2.75-8.55-4.13-12.83a6.94,6.94,0,0,1-.28-1.11c0-.1.25-.23.39-.35.53.08,1,.47,1.68.2v-2.17q0-27,0-54c0-.77.05-1.54.09-2.31.84,1.36,1.74,2.68,2.5,4.09,2.14,4,4.28,7.92,6.3,11.93,1.71,3.38,3.26,6.85,4.88,10.27.14.28.33.54.5.81,0,.7.11,1.41.11,2.11v79.79C282.13,408.78,282.09,409.49,282.07,410.2Z"/><path class="cls-9" d="M246.21,692.22c1.64.8,2.81,2.19,4.23,3.27.71.54,1.35,1.17,2.05,1.72a3,3,0,0,0,.86.35c0,.44.06.89.06,1.34v21.82c0,.7,0,1.4.06,2.21,4.47,1.4,8.89,2.7,13.33,4a1.94,1.94,0,0,0,.72,0,3.79,3.79,0,0,0,.23-2c0-3.79,0-7.59,0-11.39,0-.7.06-1.41.1-2.11a19,19,0,0,1,1.5,1.18,77.43,77.43,0,0,1,11.22,12.63c.43.62.74,1.36,1.48,1.73,0,.7.05,1.41.05,2.11,0,6.93,0,13.87,0,20.8a20.73,20.73,0,0,1-2,8.94,8.38,8.38,0,0,1-.74,1.09c-.34-.18-.7-.32-1-.53q-8.25-5.31-16.48-10.65c-.43-.28-.81-.62-1.21-.94l-.27-.37v0a8,8,0,0,0-.26-1.1c-1.36-3.81-2.94-7.53-4.62-11.21a174.6,174.6,0,0,0-9.36-17.88q0-9.24,0-18.48C246.17,696.58,246.2,694.4,246.21,692.22Z"/><path class="cls-9" d="M41.46,720.73a1.42,1.42,0,0,0,.94-.59A103.3,103.3,0,0,1,52,710.49c.62-.56,1.19-1.16,1.82-1.71a3.64,3.64,0,0,1,.8-.44c0,.7.12,1.4.12,2.1,0,4.95,0,9.89,0,14.83,0,.55-.18,1.15.42,1.7.44-.1.93-.2,1.41-.34,2.83-.83,5.65-1.69,8.48-2.49a16.93,16.93,0,0,1,4.07-1c.14.7-.32,1.21-.59,1.77-1.43,2.86-2.88,5.71-4.29,8.58-2.36,4.83-4.31,9.84-6.18,14.87a20.94,20.94,0,0,0-.54,2.21v0l-.25.42a10.44,10.44,0,0,1-1,.89q-5.75,4.07-11.5,8.1a4.91,4.91,0,0,1-.5.28,6.53,6.53,0,0,1-.68-.91,20.44,20.44,0,0,1-2.24-9.08c-.07-9.7,0-19.4,0-29.1A2.41,2.41,0,0,1,41.46,720.73Z"/><path class="cls-9" d="M282,608.43c-.31-.41-.65-.8-.92-1.22a56.22,56.22,0,0,0-8.81-10.7c-3-2.88-6.06-5.76-9.18-8.54a46.86,46.86,0,0,0-11-7.44c-1.9-.91-3.91-1.6-5.88-2.39a6.83,6.83,0,0,1-.06-.77q0-11,0-22c.53.2,1.09.34,1.6.59,1.84.92,3.66,1.86,5.49,2.8,0,.7.11,1.4.12,2.11,0,4.37,0,8.75,0,13.12a2.51,2.51,0,0,0,.32,1.77l3.22,1,9.42,2.8a1.09,1.09,0,0,0,1.37-.27v-1.95c0-3.09.05-6.18.08-9.26,1.24,1,2.52,1.94,3.73,3a69.09,69.09,0,0,1,9,9.08c.44.53,1,1,1.47,1.48,0,.45.06.9.06,1.35q0,11.76,0,23.52C282.11,607.14,282.05,607.78,282,608.43Z"/><path class="cls-10" d="M77.3,576c-2.63.85-5.26,1.66-7.87,2.55a44.52,44.52,0,0,0-13.22,7.37,157.64,157.64,0,0,0-14.27,13.19c-.14.14-.28.26-.43.39,0-.57-.11-1.15-.11-1.72q0-10.49,0-21a3.72,3.72,0,0,1,.08-.57,1.71,1.71,0,0,0,1.13-.62,105.15,105.15,0,0,1,12.1-10.2c0,.64.09,1.28.09,1.92,0,3.47,0,6.94,0,10.41a3.48,3.48,0,0,0,.25,1.94,2.12,2.12,0,0,0,.71,0c4.41-1.33,8.86-2.56,13.31-4,0-.74.07-1.37.07-2,0-3.41,0-6.82,0-10.22,0-2.19,0-4.37.06-6.56.58-.25,1.16-.49,1.73-.77,2.12-1,4.23-2.06,6.35-3.09,0,.57.1,1.15.1,1.72q0,9.82,0,19.66C77.38,574.93,77.33,575.44,77.3,576Z"/><path class="cls-11" d="M25.33,79.21c-.7,0-1.21.09-1.71.09-1.8,0-3.6,0-5.4,0-1.43,0-2-.58-2-2,0-1.1,0-2.19,0-3.28V67.68c0-.32,0-.64,0-1a2.14,2.14,0,0,1,2.42-2.5c1.74,0,3.47,0,5.21,0a5.43,5.43,0,0,1,.57,0c.73.07,1,.34,1.05,1.11,0,.26,0,.52,0,.77,0,3.86,0,7.71,0,11.56C25.45,78.13,25.38,78.57,25.33,79.21Z"/><path class="cls-11" d="M298.49,79.16c-.24-1.6-.35-10.06-.19-13.8a9.55,9.55,0,0,1,.15-1c.44,0,.81-.12,1.18-.12,1.41,0,2.82,0,4.23,0a5.47,5.47,0,0,1,1.5.24,1.44,1.44,0,0,1,1.09,1.42c0,.26,0,.51,0,.77v10.2a6.12,6.12,0,0,1,0,1,1.64,1.64,0,0,1-1.52,1.47,5.62,5.62,0,0,1-.58,0h-5A5.41,5.41,0,0,1,298.49,79.16Z"/><path class="cls-10" d="M41.51,429.76h.59l-.6.86Z"/><path class="cls-10" d="M41.46,388.1a.16.16,0,0,1,.23-.1l-.21.75C41.47,388.53,41.47,388.32,41.46,388.1Z"/><path class="cls-12" d="M77.3,576c0-.51.08-1,.08-1.53q0-9.82,0-19.66c0-.57-.06-1.15-.1-1.72s0-1.42,0-2.13V396.37c0-1.09,0-2.19,0-3.28,0-.51.08-1,.08-1.54V297.06a.49.49,0,0,0-.06-.37c0-.71,0-1.41,0-2.12V258c0-.71,0-1.42-.06-2.12q0-24.53,0-49.06v-78.6c0-.84,0-1.67,0-2.51s.09-1.54.09-2.31V95c0-.78,0-1.55.05-2.32l2.59.53a2.12,2.12,0,0,0,.66.32c.58,0,1.16,0,1.74,0H241.2c.51,0,1,0,1.54,0a2.41,2.41,0,0,0,.67-.32l2.79-.48c0,1.67,0,3.35,0,5q0,13.5,0,27c0,.77.06,1.54.1,2.31s-.11,1.41-.11,2.12q0,67.49,0,135c0,.58,0,1.16,0,1.74,0,.25,0,.51,0,.77q0,21,0,42c0,.51.06,1,.09,1.54,0,.7-.09,1.41-.09,2.12q0,41.82,0,83.64c0,.77.11,1.53.17,2.3s-.18,1.53-.19,2.29q0,7.53,0,15.06,0,68.91,0,137.81c0,.65,0,1.29,0,1.93q0,11,0,22a6.83,6.83,0,0,0,.06.77c0,.64-.07,1.28-.07,1.92q0,20.09,0,40.18c0,.64,0,1.28.07,1.92s-.08,1.29-.08,1.93q0,33.2,0,66.4c0,.58,0,1.15.05,1.73,0,2.18,0,4.36,0,6.54q0,9.24,0,18.48l0,18.11c0,.52,0,1,0,1.55s-.35.77-.85.85c-.95-.09-1.9-.25-2.86-.26-4.48,0-9,0-13.44,0-.83,0-1.67.06-2.5.09,0-.84-.07-1.67-.07-2.51q0-197,0-394c0-.71,0-1.42,0-2.13v-.38a4.06,4.06,0,0,0,2.32-4.22c0-.51,0-1,0-1.53a8.05,8.05,0,0,0-.25-1.13c-.65,0-1.21-.07-1.78-.07-1.46,0-2.93,0-4.4,0a6.34,6.34,0,0,1-1.26-.28v-.15c2.19,0,4.38,0,6.57,0a6.47,6.47,0,0,0,1.16-.22V148.78c0-.58,0-1.16,0-1.74a3.85,3.85,0,0,0-4-4c-1.23,0-2.45,0-3.67,0l-1,0H104c-.57,0-1.15,0-1.73.06-1.42,0-2.83-.09-4.25,0a3.92,3.92,0,0,0-3.74,3.72c0,.71,0,1.42,0,2.13V328.47c0,.51,0,1,0,1.54a7.58,7.58,0,0,0,.21,1.1h7.8l0,.18c-.35.37-.81.31-1.26.31-1.79,0-3.58,0-5.37,0a11.77,11.77,0,0,0-1.38.2c0,.72-.07,1.34-.07,2a7.09,7.09,0,0,0,0,1.53,4.15,4.15,0,0,0,4.07,3.63c.57,0,1.15,0,1.72,0,0,1,0,1.93,0,2.9q0,196.5,0,393c0,.9,0,1.8-.07,2.7-1.8,0-3.59-.08-5.39-.09-5.07,0-10.14,0-15.21,0-.7,0-1.39-.14-2.09-.21q0-12,0-24c0-.76-.11-1.52-.16-2.28a22,22,0,0,0,.23-2.28q0-9,0-18.08c0-.64-.07-1.28-.11-1.91,0-.45,0-.9,0-1.35V616.87c0-.39,0-.77,0-1.16s.08-1,.08-1.54V577.3C77.35,576.85,77.32,576.4,77.3,576Zm12-474.27h0c-1.48,0-3,0-4.44,0a2.34,2.34,0,0,0-2.36,2.13,10,10,0,0,0,0,2.5,2.49,2.49,0,0,0,2.32,2.22,9,9,0,0,0,1.16,0h6.38a8.84,8.84,0,0,0,1.15,0,2.51,2.51,0,0,0,2.3-2.45,13.19,13.19,0,0,0,0-1.54c-.06-1.93-.94-2.83-2.85-2.88C91.72,101.65,90.5,101.68,89.27,101.68Zm45,6.9h0c1.35,0,2.7.05,4.05,0a2.54,2.54,0,0,0,2.69-2.67c0-.51,0-1,0-1.54a2.52,2.52,0,0,0-2.66-2.67c-1,0-1.94,0-2.9,0-1.68,0-3.35,0-5,0a2.53,2.53,0,0,0-2.8,2.54,10.29,10.29,0,0,0,0,1.36c.07,2,1,2.93,3,3C131.81,108.6,133,108.58,134.26,108.58Zm27.63-6.91h0c-1.41,0-2.83,0-4.24,0a2.44,2.44,0,0,0-2.57,2.36,9.92,9.92,0,0,0,0,2.31,2.5,2.5,0,0,0,2.16,2.17,4.9,4.9,0,0,0,.77,0q3.77,0,7.53,0a5.62,5.62,0,0,0,.58,0,2.52,2.52,0,0,0,2.27-2.48,13.19,13.19,0,0,0,0-1.54c-.07-1.91-1-2.81-2.87-2.85C164.34,101.65,163.12,101.67,161.89,101.67Zm73.66,0h0c-1.48,0-3-.05-4.44,0a2.35,2.35,0,0,0-2.37,2.31,15,15,0,0,0,0,2.12,2.47,2.47,0,0,0,2.3,2.42,7.7,7.7,0,0,0,1,0h6.75a7.8,7.8,0,0,0,1,0,2.42,2.42,0,0,0,2.27-2.43,16.83,16.83,0,0,0,0-1.74c-.07-1.82-.92-2.66-2.77-2.7C238,101.65,236.77,101.67,235.55,101.67Zm-46.7,6.91h3.28c.32,0,.64,0,1,0a2.46,2.46,0,0,0,2.52-2.6,13.66,13.66,0,0,0,0-2.12,2.35,2.35,0,0,0-2.11-2.15,7.69,7.69,0,0,0-1,0c-2.32,0-4.63,0-6.95,0a7.69,7.69,0,0,0-1,0,2.39,2.39,0,0,0-2.23,2.26c-.05.57,0,1.16,0,1.73a2.62,2.62,0,0,0,2.85,2.89C186.41,108.55,187.63,108.58,188.85,108.58Z"/><path class="cls-13" d="M197,737.48H177.2c-.83,0-1.66.06-2.49.09,0-.9-.08-1.8-.08-2.7v-393c0-1,0-1.93,0-2.9l22.45,0,0,.39c0,1-.05,1.93-.05,2.9V734.59C197,735.55,197,736.52,197,737.48Z"/><path class="cls-13" d="M145.14,737.61H129.57c0-.9-.09-1.8-.09-2.7q0-196.35,0-392.69c0-1.09,0-2.19,0-3.28h15.81c0,1,0,2.06,0,3.09V734.91C145.24,735.81,145.18,736.71,145.14,737.61Z"/><path class="cls-13" d="M167.23,737.57l-9.35-.07-5.54,0c0-1-.05-1.93-.05-2.89V342c0-1,0-2.06,0-3.09l15.07,0c0,1,0,2.06,0,3.09q0,196.41,0,392.82C167.31,735.77,167.26,736.67,167.23,737.57Z"/><path class="cls-13" d="M219.07,737.5l-14.94,0c0-1,0-1.93,0-2.9V342c0-.9,0-1.8,0-2.7,0-.13,0-.26,0-.4l15.07,0c0,1,0,1.93,0,2.89V734.41C219.1,735.44,219.08,736.47,219.07,737.5Z"/><path class="cls-13" d="M122.37,737.46l-14.94,0c0-1,0-1.93,0-2.9V341.86c0-1,0-1.93,0-2.89l15.08,0c0,1,0,1.93,0,2.9q0,196.37,0,392.74C122.42,735.53,122.39,736.5,122.37,737.46Z"/><path class="cls-14" d="M167.23,737.57c0-.9.08-1.8.08-2.7q0-196.41,0-392.82c0-1,0-2.06,0-3.09h7.26c0,1,0,1.93,0,2.9v393c0,.9.05,1.8.08,2.7a2.77,2.77,0,0,1-.72.2q-3,0-6,0A2.77,2.77,0,0,1,167.23,737.57Z"/><path class="cls-14" d="M219.07,737.5c0-1,0-2.06,0-3.09V341.86c0-1,0-1.93,0-2.89l6.17-.12,1.13.09c0,.71,0,1.42,0,2.13q0,197,0,394c0,.84.05,1.67.07,2.51a4.88,4.88,0,0,1-.9.21c-1.88,0-3.77,0-5.65,0A2.94,2.94,0,0,1,219.07,737.5Z"/><path class="cls-14" d="M107.37,339c0,1,0,1.93,0,2.89V734.6c0,1,0,1.93,0,2.9a2.15,2.15,0,0,1-.68.27q-3,0-6,0a2.6,2.6,0,0,1-.71-.2c0-.9.07-1.8.07-2.7q0-196.5,0-393c0-1,0-1.94,0-2.9Z"/><path class="cls-15" d="M152.27,338.93c0,1,0,2.06,0,3.09V734.57c0,1,0,1.93.05,2.89a2.76,2.76,0,0,1-.87.31c-1.92,0-3.85,0-5.77,0a2.91,2.91,0,0,1-.56-.15c0-.9.1-1.8.1-2.7V342c0-1,0-2.06,0-3.09h0l.38-.07h6.2l.38.06Z"/><path class="cls-15" d="M122.37,737.46c0-1,0-1.93,0-2.89q0-196.38,0-392.74c0-1,0-1.93,0-2.9h0l.38-.06h6.2l.38.07h0c0,1.09,0,2.19,0,3.28q0,196.35,0,392.69c0,.9.06,1.8.09,2.7-.63.06-1.26.16-1.89.18-1.35,0-2.7,0-4.05,0A1.52,1.52,0,0,1,122.37,737.46Z"/><path class="cls-15" d="M204,339.33c0,.9,0,1.8,0,2.7V734.56c0,1,0,1.93,0,2.9a2.76,2.76,0,0,1-.87.31c-1.8,0-3.59,0-5.39,0a3.27,3.27,0,0,1-.88-.3c0-1,0-1.93,0-2.89V342.23c0-1,0-1.93.05-2.9Z"/><path class="cls-4" d="M77.13,711c.05.76.16,1.52.16,2.28q0,12,0,24c-1.51,1-3.06,1.86-4.53,2.89-4.62,3.24-9.21,6.52-13.83,9.77a7.11,7.11,0,0,1-1.38.6,20.94,20.94,0,0,1,.54-2.21c1.87-5,3.82-10,6.18-14.87,1.41-2.87,2.86-5.72,4.29-8.58.27-.56.73-1.07.59-1.77h0a4.72,4.72,0,0,0,.75-.8c1.25-2.08,2.43-4.21,3.71-6.28A23.56,23.56,0,0,1,77.13,711Z"/><path class="cls-4" d="M245.29,737.75c.5-.08.85-.29.85-.85s0-1,0-1.55l0-18.11a174.6,174.6,0,0,1,9.36,17.88c1.68,3.68,3.26,7.4,4.62,11.21a8,8,0,0,1,.26,1.1,9.39,9.39,0,0,1-1.38-.59q-6.38-4.11-12.73-8.25C246,738.35,245.63,738,245.29,737.75Z"/><path class="cls-16" d="M84.18,763.64c-1.22,0-2.45-.06-3.66,0a2.61,2.61,0,0,1-2.88-2.84c0-.64,0-1.29,0-1.92A2,2,0,0,1,79.3,757a6.61,6.61,0,0,1,1.31-.26c2.5,0,5,0,7.51,0a4.18,4.18,0,0,1,1.64.44,1.8,1.8,0,0,1,1,1.71c0,.7,0,1.41,0,2.11a2.38,2.38,0,0,1-2.6,2.65c-.64,0-1.28,0-1.92,0Z"/><path class="cls-16" d="M241.07,763.64c-1.22,0-2.44-.06-3.66,0a2.61,2.61,0,0,1-2.88-2.83c0-.64-.05-1.3,0-1.93a2,2,0,0,1,1.61-1.92,6.75,6.75,0,0,1,1.31-.26c2.5,0,5,0,7.51,0a4.13,4.13,0,0,1,1.64.44,1.77,1.77,0,0,1,1.06,1.7c0,.71,0,1.41,0,2.12a2.39,2.39,0,0,1-2.59,2.65c-.64,0-1.29,0-1.93,0Z"/><path class="cls-4" d="M260.41,747.41l.27.37Z"/><path class="cls-4" d="M57.34,750.92l.25-.42Z"/><path class="cls-17" d="M246.2,92.74l-2.78.48c-1,0-1.93,0-2.9,0H83.07l-3.08,0-2.59-.53L76,92.06c-5.52-2.6-8.48-7-8.73-13-.15-3.47,0-7,0-10.42,0-.7,0-1.41-.08-2.12l.12-3.41c.83,0,1.67-.07,2.5-.07H254l2.32,0c0,.44.09.89.1,1.33,0,4.62,0,9.24,0,13.86a17.28,17.28,0,0,1-.45,4,14.16,14.16,0,0,1-8.42,9.87ZM208.94,80a15.45,15.45,0,0,0-.18-5.8,36.53,36.53,0,0,0-5.5.19,30,30,0,0,0,.12,5.61Zm2.21,0a18.2,18.2,0,0,0,0,5.82,48.86,48.86,0,0,0,5.53-.06,37.66,37.66,0,0,0,0-5.72C214.81,79.93,213,80,211.15,80Zm-31.21-6.87a17.77,17.77,0,0,0,0,5.69,44.63,44.63,0,0,0,5.55,0,35.24,35.24,0,0,0,0-5.72A38,38,0,0,0,179.94,73.12Zm25.91,16.55A15.81,15.81,0,0,0,205.7,84a14.67,14.67,0,0,0-5.47.19,14.61,14.61,0,0,0,.2,5.52C202.19,89.75,204,89.73,205.85,89.67Zm-27-2.34a33,33,0,0,0,0-5.63,17.76,17.76,0,0,0-5.69.09,35.77,35.77,0,0,0,.06,5.56C175.08,87.42,176.86,87.42,178.85,87.33Zm-10.09,0a17.65,17.65,0,0,0-.06-5.78,46.51,46.51,0,0,0-5.41.06,17.14,17.14,0,0,0,.05,5.7A48.86,48.86,0,0,0,168.76,87.34Zm-31.51-5.75a32.91,32.91,0,0,0,.1,5.72,31.09,31.09,0,0,0,5.55,0,17.11,17.11,0,0,0-.11-5.73C141,81.54,139.27,81.47,137.25,81.59Zm-35.17,2.59c2.94.25,4.57.19,5.73-.17a13.93,13.93,0,0,0-.25-5.6c-1.78.15-3.61-.2-5.51.23C102,80.51,102,82.29,102.08,84.18Zm19.72-.65c1.72,0,3.2,0,4.67,0a8.08,8.08,0,0,0,1.15-.21c0-1.56,0-3,0-4.51a6.49,6.49,0,0,0-.19-1c-3-.25-4.44-.19-5.63.23C121.71,79.76,121.7,81.53,121.8,83.53Zm95.12-10.06a17.15,17.15,0,0,0,.09,5.75,31,31,0,0,0,5.52-.09,30.81,30.81,0,0,0-.08-5.68C220.58,73.39,218.8,73.37,216.92,73.47Zm-48.88,0c-.14.16-.3.25-.31.34,0,1.16-.06,2.31-.07,3.46,0,.63.05,1.25.08,1.85a18.42,18.42,0,0,0,5.6,0,18.2,18.2,0,0,0-.05-5.61C171.54,73.35,169.76,73.42,168,73.42Zm-24.56,5.83a41.94,41.94,0,0,0-.21-5.87c-1.93.15-3.76-.18-5.55.21a14.46,14.46,0,0,0,.19,5.67C139.66,79.28,141.43,79.3,143.48,79.25Zm-15.39-8.48a15.86,15.86,0,0,0,.11,5.67,16.22,16.22,0,0,0,5.58-.16,33,33,0,0,0-.15-5.51Z"/><path class="cls-18" d="M256.36,63,254,63H69.79c-.83,0-1.67.05-2.5.07,0-4.38-.24-8.77,0-13.13a14,14,0,0,1,5.64-10.73,17.24,17.24,0,0,1,5.71-2.71A5.9,5.9,0,0,1,80,36.36c1,0,1.93,0,2.9,0H242.61A12.89,12.89,0,0,1,250.5,39,14.19,14.19,0,0,1,256,47.34a19.68,19.68,0,0,1,.51,4.19c.09,3.47.06,6.95.08,10.42Z"/><path class="cls-19" d="M90.4,29.46c-3,0-5.92,0-8.88,0a4.45,4.45,0,0,1-3.8-1.92A4.64,4.64,0,0,1,81,20.23a8.71,8.71,0,0,1,1.35-.05h16a8.09,8.09,0,0,1,1.91.17,4.61,4.61,0,0,1-1,9.09c-.77,0-1.54,0-2.32,0Z"/><path class="cls-19" d="M232.63,29.46c-2.7,0-5.4,0-8.1,0a7,7,0,0,1-2.09-.27,4.44,4.44,0,0,1-3-4.81,4.59,4.59,0,0,1,3.94-4.13,8.72,8.72,0,0,1,1.35-.06c5.4,0,10.8,0,16.2,0a6.4,6.4,0,0,1,2.46.37,4.61,4.61,0,0,1,2.83,5.14,4.47,4.47,0,0,1-4.1,3.73c-1.73.09-3.47,0-5.21,0Z"/><path class="cls-1" d="M267.55,202.82c-1.39-.17-12-3.3-14.07-4.15,0-.39-.1-.83-.1-1.27-.23-16.7-.11-55.86.17-57.67,1.35.12,11.85,2.66,14,3.39l.1.15a.45.45,0,0,1,.07.18q0,29.24,0,58.47a6.31,6.31,0,0,1-.08.76S267.59,202.78,267.55,202.82Z"/><path class="cls-1" d="M253.24,275.5c0-.77.13-1.54.13-2.3v-51c0-.7,0-1.4,0-2.1a135.83,135.83,0,0,1,14.16,3.39,4.41,4.41,0,0,1,.15,2q0,25.67,0,51.35c0,1.74,0,3.48,0,5.21,0,.37-.06.74-.1,1.21-.47-.11-.84-.17-1.2-.27-2.95-.87-5.91-1.76-8.87-2.62a10.25,10.25,0,0,0-1.13-.2l-3-1.1C253.39,277.86,253.32,276.68,253.24,275.5Z"/><path class="cls-1" d="M267.84,299.08c0,.77-.09,1.54-.09,2.31q0,27,0,54v2.17c-.65.27-1.15-.12-1.68-.2l-10.81-3.31c-.55-.17-1.09-.36-1.6-.53a4.15,4.15,0,0,1-.23-2.13q0-12.12,0-24.25c0-.7,0-1.4-.07-2.11s0-1.54,0-2.32q0-13,0-26.07a4.4,4.4,0,0,1,.2-2.14,10.37,10.37,0,0,1,1.12.13c2.19.54,4.36,1.11,6.55,1.63,1.94.46,3.88.88,5.82,1.31C267.83,297.82,267.68,298.52,267.84,299.08Z"/><path class="cls-8" d="M267.07,297.57c-1.94-.43-3.88-.85-5.82-1.31-2.19-.52-4.36-1.09-6.55-1.63a10.37,10.37,0,0,0-1.12-.13,4.4,4.4,0,0,0-.2,2.14q0,13,0,26.07c0,.78,0,1.55,0,2.32-.33-.61-.7-1.2-1-1.83-1.7-3.7-3.37-7.41-5.07-11.11-.3-.63-.68-1.22-1-1.83,0-.52-.09-1-.09-1.54q0-21,0-42c0-.26,0-.52,0-.77a12.44,12.44,0,0,1,1.16,1.25c2,2.77,3.93,5.56,5.89,8.34.08,1.18.15,2.36.23,3.62l3,1.1c1.37,2.17,2.75,4.32,4.09,6.5,2.12,3.43,4.22,6.88,6.32,10.32A3.11,3.11,0,0,1,267.07,297.57Z"/><path class="cls-1" d="M69.21,267.15c0,1.48-.08,3-.09,4.42,0,2.06,0,4.11,0,6.17,0,.44,0,.87-.06,1.41l-9.94,3.08-4.22,1.08c0-.57-.13-1.05-.13-1.53q0-6.46,0-12.94V223.57c2.36-.85,4.75-1.27,7.1-1.88s4.72-1.17,7.25-1.79c0,.87,0,1.57,0,2.26v42.68C69.12,265.61,69.18,266.38,69.21,267.15Z"/><path class="cls-1" d="M54.82,202.86V143.11c4.66-1.29,9.35-2.35,14.09-3.55a2.88,2.88,0,0,1,.2,1.53q0,7.72,0,15.46v40c0,.7,0,1.4-.05,2C67.64,199.27,56.83,202.51,54.82,202.86Z"/><path class="cls-1" d="M54.74,416.61c0-.83,0-1.67,0-2.5V370.85a6.73,6.73,0,0,1,1.09-.49c4.1-1,8.21-2.05,12.33-3.06a4,4,0,0,1,.87,0c0,.76,0,1.45,0,2.15V399c0,.77.06,1.54.09,2.31s-.1,1.41-.1,2.12v22.79a5.19,5.19,0,0,1-.86.46q-6.27,1.89-12.55,3.74a6.89,6.89,0,0,1-.81.13,27.78,27.78,0,0,1-.15-4.63c0-1.55,0-3.09,0-4.63S54.74,418.15,54.74,416.61Z"/><path class="cls-1" d="M69,500.64c-1.49.66-12.21,3.87-14,4.19-.4-.49-.22-1.09-.22-1.64,0-7.59,0-15.19,0-22.78V447.19a5.69,5.69,0,0,1,.19-2.18l13.27-3.27a3.13,3.13,0,0,1,.75,0C69.16,443.23,69.19,498.71,69,500.64Z"/><path class="cls-1" d="M69.19,556.9c0,2.19,0,4.37-.06,6.56,0,3.4,0,6.81,0,10.22,0,.63,0,1.26-.07,2-4.45,1.42-8.9,2.65-13.31,4a2.12,2.12,0,0,1-.71,0,3.48,3.48,0,0,1-.25-1.94c0-3.47,0-6.94,0-10.41,0-.64-.05-1.28-.09-1.92s.06-1.54.06-2.32V520.12c2.39-.79,4.77-1.28,7.13-1.85a60.38,60.38,0,0,1,7.24-1.65v38.16C69.12,555.49,69.17,556.2,69.19,556.9Z"/><path class="cls-1" d="M253.33,404.68c0-.7.08-1.41.08-2.11v-33c0-.7,0-1.4.06-2.24a25.1,25.1,0,0,1,4.7,1c1.63.36,3.26.75,4.87,1.19a22,22,0,0,1,4.71,1.37V373q0,23.37,0,46.73a2.47,2.47,0,0,0,0,.38c0,3.45,0,6.9-.07,10.36a136.74,136.74,0,0,1-14.14-4.09,3.16,3.16,0,0,1-.19-1.83q0-8.86,0-17.71C253.37,406.09,253.34,405.39,253.33,404.68Z"/><path class="cls-1" d="M267.54,445c.25,1.62.29,57.83.06,59.82a4.66,4.66,0,0,1-.75-.09c-4.43-1.3-8.87-2.62-13.23-3.92l-.14-.27a.58.58,0,0,1-.06-.17q0-28.68,0-57.36c0-.26,0-.52,0-.78a1.61,1.61,0,0,1,.1-.36,2.86,2.86,0,0,1,.17-.28C258.31,442.66,263,443.89,267.54,445Z"/><path class="cls-1" d="M267.83,568.1c0,3.08-.05,6.17-.08,9.26v1.95a1.09,1.09,0,0,1-1.37.27l-9.42-2.8-3.22-1a2.51,2.51,0,0,1-.32-1.77c0-4.37,0-8.75,0-13.12,0-.71-.08-1.41-.12-2.11s.08-1.54.08-2.31q0-18.82,0-37.64a4.78,4.78,0,0,1,.18-2.14,3.56,3.56,0,0,1,.73,0L267.55,520a5.47,5.47,0,0,1,.19,2.17q0,21.81,0,43.62C267.75,566.56,267.8,567.33,267.83,568.1Z"/><path class="cls-1" d="M54.72,347.93c0-.84,0-1.67,0-2.51q0-22.69,0-45.38a4.6,4.6,0,0,1,.23-2.22l13-3.25a7.57,7.57,0,0,1,1.07-.08c0,.69,0,1.32,0,1.95,0,4.57,0,9.14,0,13.71,0,.71,0,1.42.07,2.12s-.06,1.42-.06,2.12v36.9c0,.7,0,1.4,0,2.18-4.49,1.42-8.93,2.71-13.36,4a2.82,2.82,0,0,1-.83-.06C54.64,354.21,54.93,351.06,54.72,347.93Z"/><path class="cls-10" d="M41.69,388l.39-.82C42.1,387.53,42.07,387.84,41.69,388Z"/><path class="cls-5" d="M77.31,296.69a.49.49,0,0,1,.06.37l-.19.05L77,297Z"/><path class="cls-1" d="M69.18,723.09a16.93,16.93,0,0,0-4.07,1c-2.83.8-5.65,1.66-8.48,2.49-.48.14-1,.24-1.41.34-.6-.55-.42-1.15-.42-1.7,0-4.94,0-9.88,0-14.83,0-.7-.08-1.4-.12-2.1s.08-1.67.08-2.51q0-18.14,0-36.28v-2.2c2.38-.79,4.76-1.27,7.12-1.84a62.67,62.67,0,0,1,7.23-1.66c0,.84,0,1.54,0,2.24v26.63c0,.71,0,1.41.08,2.12s-.07,1.4-.07,2.11v24.21c0,.64,0,1.28.05,1.92Z"/><path class="cls-1" d="M54.66,646.06c0-.77.09-1.54.09-2.31V595.09c0-.7,0-1.39.06-2.19l14.12-3.51a5.54,5.54,0,0,1,.18,2.18q0,14.86,0,29.73c0,.71,0,1.42.08,2.12s-.08,1.41-.08,2.12v22.81a146.91,146.91,0,0,1-14.19,4.33,6.44,6.44,0,0,1-.17-1C54.71,649.78,54.69,647.92,54.66,646.06Z"/><path class="cls-9" d="M69.18,723.08c0-.64-.05-1.28-.05-1.92V697c0-.71.05-1.41.07-2.11q3-2.36,6-4.7c.66-.5,1.34-1,2-1.44,0,.63.11,1.27.11,1.91q0,9,0,18.08a22,22,0,0,1-.23,2.28,23.56,23.56,0,0,0-3.49,5c-1.28,2.07-2.46,4.2-3.71,6.28A4.72,4.72,0,0,1,69.18,723.08Z"/><path class="cls-1" d="M265.77,652.41c-.78-.28-1.56-.58-2.35-.82-3-.92-6-1.81-9.05-2.71-.29-.09-.58-.23-1-.38,0-.67,0-1.3,0-1.93V633.06c0-.64-.06-1.28-.09-1.92s.09-1.41.09-2.12q0-18.72,0-37.44a4,4,0,0,1,.25-2.17l13.94,3.47c.21,1.54.26,57.48.06,59.84Z"/><path class="cls-1" d="M267.86,711.42c0,.7-.1,1.41-.1,2.11,0,3.8,0,7.6,0,11.39a3.79,3.79,0,0,1-.23,2,1.94,1.94,0,0,1-.72,0c-4.44-1.27-8.86-2.57-13.33-4,0-.81-.06-1.51-.06-2.21V698.9c0-.45,0-.9-.06-1.34q0-15.72,0-31.45c0-.7,0-1.39.06-2.23a65.67,65.67,0,0,1,7.19,1.63c2.31.53,4.6,1.14,6.9,1.72a4.41,4.41,0,0,1,.21,2.14q0,19.86,0,39.74C267.75,709.88,267.82,710.65,267.86,711.42Z"/><path class="cls-20" d="M102.3,143.09c.58,0,1.16-.06,1.73-.06H220.09l1,0c0,.71-.11,1.41-.11,2.12V329.05c0,.7.07,1.41.1,2.11v.15c-.77,0-1.54-.09-2.31-.09q-57.13,0-114.26,0c-.71,0-1.41,0-2.12.07l0-.18c0-.77,0-1.54,0-2.31V145.4C102.36,144.63,102.32,143.86,102.3,143.09Zm44.28,168.08.29-.34c.82-.72,1.7-1.38,2.47-2.15,6.1-6.17,8.42-13.57,6.77-22.07A23.94,23.94,0,0,0,114.38,276a25.15,25.15,0,0,0-2.73,3.44c-.78,0-1.12.55-1.47,1.09a31.65,31.65,0,0,0-2.78,5,26.23,26.23,0,0,0-1.85,8.8,23.7,23.7,0,0,0,.45,4.58,22.51,22.51,0,0,0,2.77,7.56,23.53,23.53,0,0,0,9.36,9.2,24.21,24.21,0,0,0,16.24,2.41,23.62,23.62,0,0,0,10.94-5.38c.21-.17.24-.56.35-.84l.46-.35.36-.3Zm58.35,0,.3-.26c.62-.56,1.26-1.1,1.87-1.68,6.52-6.2,9.06-13.78,7.36-22.59A23.94,23.94,0,0,0,172.73,276a25.15,25.15,0,0,0-2.73,3.44c-.77,0-1.12.55-1.47,1.09a31.65,31.65,0,0,0-2.78,5,26.23,26.23,0,0,0-1.85,8.8,23.7,23.7,0,0,0,.45,4.58,22.51,22.51,0,0,0,2.77,7.56,23.6,23.6,0,0,0,9.36,9.2,24.21,24.21,0,0,0,16.24,2.41,23.58,23.58,0,0,0,10.94-5.38c.21-.17.24-.56.35-.84l.46-.35.36-.3ZM146.48,197.25l.1-.07.29-.35c.82-.71,1.7-1.38,2.47-2.15,6.1-6.17,8.42-13.57,6.77-22.06A23.94,23.94,0,0,0,114.38,162a25.06,25.06,0,0,0-2.73,3.43c-.78,0-1.12.56-1.47,1.09a31.32,31.32,0,0,0-2.78,5,26.17,26.17,0,0,0-1.85,8.79,23.62,23.62,0,0,0,.45,4.58,22.51,22.51,0,0,0,2.77,7.56,23.47,23.47,0,0,0,9.36,9.2,24.09,24.09,0,0,0,16.24,2.41,23.51,23.51,0,0,0,10.94-5.37c.21-.18.24-.56.35-.85l.46-.35Zm58.35,0,.1-.07.3-.26c.62-.56,1.26-1.1,1.87-1.67,6.52-6.21,9.06-13.78,7.36-22.6A23.95,23.95,0,0,0,172.73,162a25.15,25.15,0,0,0-2.73,3.44c-.77,0-1.12.56-1.47,1.09a31.32,31.32,0,0,0-2.78,5,26.17,26.17,0,0,0-1.85,8.79,23.62,23.62,0,0,0,.45,4.58,22.51,22.51,0,0,0,2.77,7.56,23.53,23.53,0,0,0,9.36,9.2,24.09,24.09,0,0,0,16.24,2.41,23.47,23.47,0,0,0,10.94-5.37c.21-.17.24-.56.35-.85l.46-.35Zm0,57.19.1-.07.29-.35c.82-.71,1.7-1.37,2.47-2.15,6.11-6.16,8.42-13.57,6.77-22.06a23.94,23.94,0,0,0-41.73-10.62,25.15,25.15,0,0,0-2.73,3.44c-.77,0-1.12.55-1.47,1.08a31.32,31.32,0,0,0-2.78,5,26.23,26.23,0,0,0-1.85,8.8,23.78,23.78,0,0,0,.45,4.58,22.45,22.45,0,0,0,2.77,7.55,23.47,23.47,0,0,0,9.36,9.2,24.09,24.09,0,0,0,16.24,2.41,23.47,23.47,0,0,0,10.94-5.37c.21-.17.24-.56.35-.85l.46-.34Zm-58.25-.07.29-.35c.82-.71,1.7-1.37,2.47-2.15,6.1-6.16,8.42-13.57,6.77-22.06a23.94,23.94,0,0,0-41.73-10.62,25.15,25.15,0,0,0-2.73,3.44c-.78,0-1.12.55-1.47,1.08a31.32,31.32,0,0,0-2.78,5,26.23,26.23,0,0,0-1.85,8.8,23.78,23.78,0,0,0,.45,4.58,22.45,22.45,0,0,0,2.77,7.55,23.4,23.4,0,0,0,9.36,9.2,24.09,24.09,0,0,0,16.24,2.41,23.51,23.51,0,0,0,10.94-5.37c.21-.17.24-.56.35-.85l.46-.34.36-.3Z"/><path class="cls-21" d="M102.3,143.09c0,.77.06,1.54.06,2.31V328.8c0,.77,0,1.54,0,2.31h-7.8a7.58,7.58,0,0,1-.21-1.1c0-.51,0-1,0-1.54V148.92c0-.71,0-1.42,0-2.13a3.92,3.92,0,0,1,3.74-3.72C99.47,143,100.88,143.08,102.3,143.09Z"/><path class="cls-22" d="M221.05,331.16c0-.7-.1-1.41-.1-2.11V145.17c0-.71.07-1.41.11-2.12,1.22,0,2.44,0,3.67,0a3.85,3.85,0,0,1,4,4c0,.58,0,1.16,0,1.74V330.94a6.47,6.47,0,0,1-1.16.22C225.43,331.18,223.24,331.17,221.05,331.16Z"/><path class="cls-19" d="M102.36,331.29c.71,0,1.41-.07,2.12-.07q57.13,0,114.26,0c.77,0,1.54.06,2.31.09a6.34,6.34,0,0,0,1.26.28c1.47,0,2.94,0,4.4,0,.57,0,1.13,0,1.78.07a8.05,8.05,0,0,1,.25,1.13c0,.5,0,1,0,1.53a4.06,4.06,0,0,1-2.32,4.22c-.4,0-.82-.08-1.13.29l-6.17.12-15.07,0,0,0-.39-.05h-6.2l-.38.08h0l-22.45,0h-7.26l-15.07,0h0l-.38-.06h-6.2l-.38.07H129.44l-.38-.07h-6.2l-.38.06h0l-15.08,0h-7.26c-.57,0-1.15,0-1.72,0a4.15,4.15,0,0,1-4.07-3.63,7.09,7.09,0,0,1,0-1.53c0-.63,0-1.25.07-2a11.77,11.77,0,0,1,1.38-.2c1.79,0,3.58,0,5.37,0C101.55,331.6,102,331.66,102.36,331.29Z"/><path class="cls-16" d="M89.27,101.68c1.23,0,2.45,0,3.67,0,1.91,0,2.79.95,2.85,2.88a13.19,13.19,0,0,1,0,1.54,2.51,2.51,0,0,1-2.3,2.45,8.84,8.84,0,0,1-1.15,0H85.94a9,9,0,0,1-1.16,0,2.49,2.49,0,0,1-2.32-2.22,10,10,0,0,1,0-2.5,2.34,2.34,0,0,1,2.36-2.13c1.48-.06,3,0,4.44,0Z"/><path class="cls-16" d="M134.26,108.58c-1.23,0-2.45,0-3.67,0-2-.06-2.91-1-3-3a10.29,10.29,0,0,1,0-1.36,2.53,2.53,0,0,1,2.8-2.54c1.67,0,3.34,0,5,0,1,0,1.93,0,2.9,0a2.52,2.52,0,0,1,2.66,2.67c0,.51,0,1,0,1.54a2.54,2.54,0,0,1-2.69,2.67c-1.35.06-2.7,0-4.05,0Z"/><path class="cls-16" d="M161.89,101.67c1.23,0,2.45,0,3.68,0,1.91,0,2.8.94,2.87,2.85a13.19,13.19,0,0,1,0,1.54,2.52,2.52,0,0,1-2.27,2.48,5.62,5.62,0,0,1-.58,0q-3.76,0-7.53,0a4.9,4.9,0,0,1-.77,0,2.5,2.5,0,0,1-2.16-2.17,9.92,9.92,0,0,1,0-2.31,2.44,2.44,0,0,1,2.57-2.36c1.41,0,2.83,0,4.24,0Z"/><path class="cls-16" d="M235.55,101.67c1.22,0,2.44,0,3.67,0,1.85,0,2.7.88,2.77,2.7a16.83,16.83,0,0,1,0,1.74,2.42,2.42,0,0,1-2.27,2.43,7.8,7.8,0,0,1-1,0H232a7.7,7.7,0,0,1-1,0,2.47,2.47,0,0,1-2.3-2.42,15,15,0,0,1,0-2.12,2.35,2.35,0,0,1,2.37-2.31c1.48-.07,3,0,4.44,0Z"/><path class="cls-16" d="M188.85,108.58c-1.22,0-2.44,0-3.66,0a2.62,2.62,0,0,1-2.85-2.89c0-.57,0-1.16,0-1.73a2.39,2.39,0,0,1,2.23-2.26,7.69,7.69,0,0,1,1,0c2.32,0,4.63,0,6.95,0a7.69,7.69,0,0,1,1,0,2.35,2.35,0,0,1,2.11,2.15,13.66,13.66,0,0,1,0,2.12,2.46,2.46,0,0,1-2.52,2.6c-.32,0-.64,0-1,0Z"/><path class="cls-20" d="M80,93.21l3.08,0H240.52c1,0,1.93,0,2.9,0a2.61,2.61,0,0,1-.68.32c-.51,0-1,0-1.54,0H82.39c-.58,0-1.16,0-1.74,0A2.12,2.12,0,0,1,80,93.21Z"/><path class="cls-13" d="M225.3,338.85c.31-.37.73-.29,1.13-.29v.38Z"/><path class="cls-14" d="M197.44,338.86h6.2l.39.05,0,0c0,.14,0,.27,0,.4h-7l0-.39h0A1,1,0,0,0,197.44,338.86Z"/><path class="cls-13" d="M151.86,338.86l.38.06Z"/><path class="cls-13" d="M145.28,338.93l.38-.07Z"/><path class="cls-13" d="M122.48,338.92l.38-.06Z"/><path class="cls-13" d="M129.06,338.86l.38.07Z"/><path class="cls-23" d="M208.94,80h-5.56a30,30,0,0,1-.12-5.61,36.53,36.53,0,0,1,5.5-.19A15.45,15.45,0,0,1,208.94,80Z"/><path class="cls-23" d="M211.15,80c1.88,0,3.66-.06,5.55,0a37.66,37.66,0,0,1,0,5.72,48.86,48.86,0,0,1-5.53.06A18.2,18.2,0,0,1,211.15,80Z"/><path class="cls-23" d="M179.94,73.12a38,38,0,0,1,5.55,0,35.24,35.24,0,0,1,0,5.72,44.63,44.63,0,0,1-5.55,0A17.77,17.77,0,0,1,179.94,73.12Z"/><path class="cls-23" d="M205.85,89.67c-1.89.06-3.66.08-5.42,0a14.61,14.61,0,0,1-.2-5.52A14.67,14.67,0,0,1,205.7,84,15.81,15.81,0,0,1,205.85,89.67Z"/><path class="cls-23" d="M178.85,87.33c-2,.09-3.77.09-5.66,0a35.77,35.77,0,0,1-.06-5.56,17.76,17.76,0,0,1,5.69-.09A33,33,0,0,1,178.85,87.33Z"/><path class="cls-23" d="M168.76,87.34a48.86,48.86,0,0,1-5.42,0,17.14,17.14,0,0,1-.05-5.7,46.51,46.51,0,0,1,5.41-.06A17.65,17.65,0,0,1,168.76,87.34Z"/><path class="cls-23" d="M137.25,81.59c2-.12,3.79,0,5.54,0a17.11,17.11,0,0,1,.11,5.73,31.09,31.09,0,0,1-5.55,0A32.91,32.91,0,0,1,137.25,81.59Z"/><path class="cls-23" d="M102.08,84.18c-.1-1.89,0-3.67,0-5.54,1.9-.43,3.73-.08,5.51-.23a13.93,13.93,0,0,1,.25,5.6C106.65,84.37,105,84.43,102.08,84.18Z"/><path class="cls-23" d="M121.8,83.53c-.1-2-.09-3.77,0-5.53,1.19-.42,2.59-.48,5.63-.23a6.49,6.49,0,0,1,.19,1c0,1.47,0,3,0,4.51a8.08,8.08,0,0,1-1.15.21C125,83.54,123.52,83.53,121.8,83.53Z"/><path class="cls-23" d="M216.92,73.47c1.88-.1,3.66-.08,5.53,0a30.81,30.81,0,0,1,.08,5.68,31,31,0,0,1-5.52.09A17.15,17.15,0,0,1,216.92,73.47Z"/><path class="cls-23" d="M168,73.42c1.72,0,3.5-.07,5.25,0a18.2,18.2,0,0,1,.05,5.61,18.42,18.42,0,0,1-5.6,0c0-.6-.08-1.22-.08-1.85,0-1.15,0-2.3.07-3.46C167.74,73.67,167.9,73.58,168,73.42Z"/><path class="cls-23" d="M143.48,79.25c-2,0-3.82,0-5.57,0a14.46,14.46,0,0,1-.19-5.67c1.79-.39,3.62-.06,5.55-.21A41.94,41.94,0,0,1,143.48,79.25Z"/><path class="cls-23" d="M128.09,70.77h5.54a33,33,0,0,1,.15,5.51,16.22,16.22,0,0,1-5.58.16A15.86,15.86,0,0,1,128.09,70.77Z"/><path class="cls-24" d="M111.65,165.43a25.06,25.06,0,0,1,2.73-3.43,23.94,23.94,0,0,1,41.73,10.62c1.65,8.49-.67,15.89-6.77,22.06-.77.77-1.65,1.44-2.47,2.15l-.29.35-.1.07-.36.29-.46.35c-.87.39-1.76.75-2.62,1.16a23.93,23.93,0,0,1-30.32-8.32A24.44,24.44,0,0,1,108.86,180a22.42,22.42,0,0,1,.52-8,51.85,51.85,0,0,1,1.78-5.08C111.33,166.39,111.49,165.91,111.65,165.43Zm38.25,18.93a19.37,19.37,0,0,0,1.22-7.91,18.27,18.27,0,0,0-.84-4.7,7.42,7.42,0,0,0-.71-1.33,7,7,0,0,0-.43-1.46,19.6,19.6,0,0,0-5.48-6.38,18.48,18.48,0,0,0-11.89-3.68,31.74,31.74,0,0,0-3.6.49c-.11,0-.2.14-.3.22a2.58,2.58,0,0,0-.39,0,18.69,18.69,0,0,0-11,8.55,3.55,3.55,0,0,0-.27,1.1c-.19.17-.47.3-.55.51a22.91,22.91,0,0,0-1.73,7.62,16.75,16.75,0,0,0,.89,5.46,15,15,0,0,0,5.26,8.06,5.2,5.2,0,0,0,.72.88,18.06,18.06,0,0,0,7.48,3.75,19.38,19.38,0,0,0,5.73.36,7,7,0,0,0,2.83-.37,18.93,18.93,0,0,0,9.07-5.12A20.36,20.36,0,0,0,149.9,184.36Z"/><path class="cls-24" d="M146.12,311.54l-.46.35c-.87.38-1.76.75-2.62,1.16a23.93,23.93,0,0,1-30.32-8.32A24.49,24.49,0,0,1,108.86,294a22.42,22.42,0,0,1,.52-8,53,53,0,0,1,1.78-5.09c.17-.47.33-.95.49-1.43a25.15,25.15,0,0,1,2.73-3.44,23.94,23.94,0,0,1,41.73,10.62c1.65,8.5-.67,15.9-6.77,22.07-.77.77-1.65,1.43-2.47,2.15l-.29.34-.1.07Zm-12.06-1.6a6.8,6.8,0,0,0,2.83-.38,18.92,18.92,0,0,0,9.07-5.11,20.49,20.49,0,0,0,3.94-6.09,19.37,19.37,0,0,0,1.22-7.91,18.27,18.27,0,0,0-.84-4.7,7.42,7.42,0,0,0-.71-1.33,7,7,0,0,0-.43-1.46,19.6,19.6,0,0,0-5.48-6.38,18.48,18.48,0,0,0-11.89-3.68,29.63,29.63,0,0,0-3.6.49c-.11,0-.2.14-.3.22a2.58,2.58,0,0,0-.39,0,18.65,18.65,0,0,0-11,8.55,3.48,3.48,0,0,0-.27,1.1c-.19.17-.47.3-.55.51a23.41,23.41,0,0,0-1.73,7.42,16.65,16.65,0,0,0,.89,5.66,15,15,0,0,0,5.26,8.06,5.63,5.63,0,0,0,.72.88,18.06,18.06,0,0,0,7.48,3.75A19.38,19.38,0,0,0,134.06,309.94Z"/><path class="cls-24" d="M146.12,254.74l-.46.34c-.87.39-1.76.76-2.62,1.17a23.94,23.94,0,0,1-30.32-8.33,24.4,24.4,0,0,1-3.86-10.77,22.42,22.42,0,0,1,.52-8,51.85,51.85,0,0,1,1.78-5.08c.17-.48.33-1,.49-1.43a25.15,25.15,0,0,1,2.73-3.44,23.94,23.94,0,0,1,41.73,10.62c1.65,8.49-.67,15.9-6.77,22.06-.77.78-1.65,1.44-2.47,2.15l-.29.35-.1.07Zm3.78-13.19a19.29,19.29,0,0,0,1.22-7.9,18.12,18.12,0,0,0-.84-4.7,7.18,7.18,0,0,0-.71-1.34,7,7,0,0,0-.43-1.46,19.46,19.46,0,0,0-5.48-6.37,18.43,18.43,0,0,0-11.89-3.69,31.74,31.74,0,0,0-3.6.49c-.11,0-.2.15-.3.22a2.6,2.6,0,0,0-.39,0,18.67,18.67,0,0,0-11,8.54,3.55,3.55,0,0,0-.27,1.1c-.19.17-.47.3-.55.52a23.29,23.29,0,0,0-1.73,7.42,16.55,16.55,0,0,0,.89,5.65,15,15,0,0,0,5.26,8.06,5.72,5.72,0,0,0,.72.89,18.3,18.3,0,0,0,7.48,3.75,19.38,19.38,0,0,0,5.73.36,7.14,7.14,0,0,0,2.83-.38,18.93,18.93,0,0,0,9.07-5.12A20.36,20.36,0,0,0,149.9,241.55Z"/><path class="cls-24" d="M170,222.63a25.15,25.15,0,0,1,2.73-3.44,23.94,23.94,0,0,1,41.73,10.62c1.65,8.49-.66,15.9-6.77,22.06-.77.78-1.65,1.44-2.47,2.15l-.29.35-.1.07-.36.3-.46.34c-.87.39-1.76.76-2.62,1.17a23.94,23.94,0,0,1-30.32-8.33,24.4,24.4,0,0,1-3.86-10.77,22.2,22.2,0,0,1,.53-8,47.09,47.09,0,0,1,1.78-5.08Zm3.91,5a15.83,15.83,0,0,0-1.54,6.64,18.48,18.48,0,0,0,3.11,10.65c.41.63.72,1.37,1.51,1.67.06.83.84,1.07,1.3,1.56a16.3,16.3,0,0,0,6.94,4.21,11.82,11.82,0,0,0,4.86.77,25.71,25.71,0,0,0,4-.12,19.46,19.46,0,0,0,7.89-3.39,16.71,16.71,0,0,0,5.91-7.63,2.44,2.44,0,0,0,.32-.47,18.37,18.37,0,0,0,1.24-7.31,19.09,19.09,0,0,0-.85-5.26,8.12,8.12,0,0,0-.71-1.33,5.87,5.87,0,0,0-.34-1.28,20.56,20.56,0,0,0-5.85-6.76,18.89,18.89,0,0,0-7-3.08,17.57,17.57,0,0,0-7.77,0,7.38,7.38,0,0,0-1.53.68,5.22,5.22,0,0,0-1.13.17,17.47,17.47,0,0,0-8.16,6.09A10.23,10.23,0,0,0,173.91,227.63Z"/><path class="cls-24" d="M170,165.43a25.15,25.15,0,0,1,2.73-3.44,23.95,23.95,0,0,1,41.73,10.66c1.7,8.82-.84,16.39-7.36,22.6-.61.57-1.25,1.11-1.87,1.67l-.3.26-.1.07-.36.29-.46.35c-.87.39-1.76.75-2.62,1.16a23.19,23.19,0,0,1-15.59,1.8,23.48,23.48,0,0,1-14.73-10.12A24.44,24.44,0,0,1,167.21,180a22.2,22.2,0,0,1,.53-8,47.09,47.09,0,0,1,1.78-5.08Zm3.91,5a15.83,15.83,0,0,0-1.54,6.64,18.48,18.48,0,0,0,3.11,10.65c.41.63.72,1.37,1.51,1.67.06.83.84,1.07,1.3,1.55a16.23,16.23,0,0,0,6.94,4.22,11.82,11.82,0,0,0,4.86.77,24.54,24.54,0,0,0,4-.13,19.31,19.31,0,0,0,7.89-3.38,16.71,16.71,0,0,0,5.91-7.63,2.44,2.44,0,0,0,.32-.47,18.37,18.37,0,0,0,1.24-7.31,19,19,0,0,0-.85-5.26,8.12,8.12,0,0,0-.71-1.33,5.87,5.87,0,0,0-.34-1.28,20.46,20.46,0,0,0-5.85-6.76,18.89,18.89,0,0,0-7-3.08,17.71,17.71,0,0,0-7.77,0,7.43,7.43,0,0,0-1.53.69,5.22,5.22,0,0,0-1.13.17,17.52,17.52,0,0,0-8.16,6.08A10.33,10.33,0,0,0,173.91,170.44Z"/><path class="cls-24" d="M170,279.43a25.15,25.15,0,0,1,2.73-3.44,23.94,23.94,0,0,1,41.73,10.66c1.7,8.81-.84,16.39-7.36,22.59-.61.58-1.25,1.12-1.87,1.67l-.3.27-.1.06-.36.3-.46.35c-.87.38-1.76.75-2.62,1.16a23.12,23.12,0,0,1-15.59,1.79,23.43,23.43,0,0,1-14.73-10.11A24.49,24.49,0,0,1,167.21,294a22.24,22.24,0,0,1,.53-8,48.65,48.65,0,0,1,1.78-5.08Zm7,24c.06.83.84,1.08,1.3,1.56a16.32,16.32,0,0,0,6.94,4.22,12.16,12.16,0,0,0,4.86.77,24.54,24.54,0,0,0,4-.13,19.44,19.44,0,0,0,7.89-3.38,16.71,16.71,0,0,0,5.91-7.63,2.79,2.79,0,0,0,.32-.47,18.37,18.37,0,0,0,1.24-7.31,19.1,19.1,0,0,0-.85-5.27,8,8,0,0,0-.71-1.32,5.73,5.73,0,0,0-.34-1.28,20.36,20.36,0,0,0-5.85-6.76,19.08,19.08,0,0,0-7-3.09,17.71,17.71,0,0,0-7.77,0,6.94,6.94,0,0,0-1.53.69,5.22,5.22,0,0,0-1.13.17,17.45,17.45,0,0,0-8.16,6.08,10.27,10.27,0,0,0-2.27,4.16,15.78,15.78,0,0,0-1.54,6.63,18.45,18.45,0,0,0,3.11,10.65C175.89,302.36,176.2,303.1,177,303.39Z"/><path class="cls-25" d="M170,279.43l-.48,1.43a48.65,48.65,0,0,0-1.78,5.08,22.24,22.24,0,0,0-.53,8,24.49,24.49,0,0,0,3.86,10.77,23.43,23.43,0,0,0,14.73,10.11,23.12,23.12,0,0,0,15.59-1.79c.86-.41,1.75-.78,2.62-1.16-.11.28-.14.67-.35.84a23.58,23.58,0,0,1-10.94,5.38,24.21,24.21,0,0,1-16.24-2.41,23.6,23.6,0,0,1-9.36-9.2,22.51,22.51,0,0,1-2.77-7.56,23.7,23.7,0,0,1-.45-4.58,26.23,26.23,0,0,1,1.85-8.8,31.65,31.65,0,0,1,2.78-5C168.88,280,169.23,279.4,170,279.43Z"/><path class="cls-25" d="M170,165.43l-.48,1.44a47.09,47.09,0,0,0-1.78,5.08,22.2,22.2,0,0,0-.53,8,24.44,24.44,0,0,0,3.86,10.77,23.48,23.48,0,0,0,14.73,10.12,23.19,23.19,0,0,0,15.59-1.8c.86-.41,1.75-.77,2.62-1.16-.11.29-.14.68-.35.85a23.47,23.47,0,0,1-10.94,5.37,24.09,24.09,0,0,1-16.24-2.41,23.53,23.53,0,0,1-9.36-9.2,22.51,22.51,0,0,1-2.77-7.56,23.62,23.62,0,0,1-.45-4.58,26.17,26.17,0,0,1,1.85-8.79,31.32,31.32,0,0,1,2.78-5C168.88,166,169.23,165.4,170,165.43Z"/><path class="cls-25" d="M111.65,222.63c-.16.47-.32,1-.49,1.43a51.85,51.85,0,0,0-1.78,5.08,22.42,22.42,0,0,0-.52,8,24.4,24.4,0,0,0,3.86,10.77A23.94,23.94,0,0,0,143,256.25c.86-.41,1.75-.78,2.62-1.17-.11.29-.14.68-.35.85a23.51,23.51,0,0,1-10.94,5.37,24.09,24.09,0,0,1-16.24-2.41,23.4,23.4,0,0,1-9.36-9.2,22.45,22.45,0,0,1-2.77-7.55,23.78,23.78,0,0,1-.45-4.58,26.23,26.23,0,0,1,1.85-8.8,31.32,31.32,0,0,1,2.78-5C110.53,223.18,110.87,222.59,111.65,222.63Z"/><path class="cls-25" d="M111.65,165.43c-.16.48-.32,1-.49,1.44a51.85,51.85,0,0,0-1.78,5.08,22.42,22.42,0,0,0-.52,8,24.44,24.44,0,0,0,3.86,10.77A23.93,23.93,0,0,0,143,199.05c.86-.41,1.75-.77,2.62-1.16-.11.29-.14.67-.35.85a23.51,23.51,0,0,1-10.94,5.37,24.09,24.09,0,0,1-16.24-2.41,23.47,23.47,0,0,1-9.36-9.2,22.51,22.51,0,0,1-2.77-7.56,23.62,23.62,0,0,1-.45-4.58,26.17,26.17,0,0,1,1.85-8.79,31.32,31.32,0,0,1,2.78-5C110.53,166,110.87,165.4,111.65,165.43Z"/><path class="cls-25" d="M170,222.63l-.48,1.43a47.09,47.09,0,0,0-1.78,5.08,22.2,22.2,0,0,0-.53,8,24.4,24.4,0,0,0,3.86,10.77,23.94,23.94,0,0,0,30.32,8.33c.86-.41,1.75-.78,2.62-1.17-.11.29-.14.68-.35.85a23.47,23.47,0,0,1-10.94,5.37,24.09,24.09,0,0,1-16.24-2.41,23.47,23.47,0,0,1-9.36-9.2,22.45,22.45,0,0,1-2.77-7.55,23.78,23.78,0,0,1-.45-4.58,26.23,26.23,0,0,1,1.85-8.8,31.32,31.32,0,0,1,2.78-5C168.88,223.18,169.23,222.59,170,222.63Z"/><path class="cls-25" d="M111.65,279.43c-.16.48-.32,1-.49,1.43a53,53,0,0,0-1.78,5.09,22.42,22.42,0,0,0-.52,8,24.49,24.49,0,0,0,3.86,10.77A23.93,23.93,0,0,0,143,313.05c.86-.41,1.75-.78,2.62-1.16-.11.28-.14.67-.35.84a23.62,23.62,0,0,1-10.94,5.38,24.21,24.21,0,0,1-16.24-2.41,23.53,23.53,0,0,1-9.36-9.2,22.51,22.51,0,0,1-2.77-7.56,23.7,23.7,0,0,1-.45-4.58,26.23,26.23,0,0,1,1.85-8.8,31.65,31.65,0,0,1,2.78-5C110.53,280,110.87,279.4,111.65,279.43Z"/><path class="cls-25" d="M146.12,254.74l.36-.3Z"/><path class="cls-25" d="M204.93,254.37l.29-.35Z"/><path class="cls-25" d="M146.58,254.37l.29-.35Z"/><path class="cls-25" d="M204.47,254.74l.36-.3Z"/><path class="cls-25" d="M204.93,197.18l.3-.26Z"/><path class="cls-25" d="M146.58,197.18l.29-.35Z"/><path class="cls-25" d="M204.47,197.54l.36-.29Z"/><path class="cls-25" d="M204.47,311.54l.36-.3Z"/><path class="cls-25" d="M146.12,311.54l.36-.3Z"/><path class="cls-25" d="M204.93,311.18l.3-.27Z"/><path class="cls-25" d="M146.58,311.17l.29-.34Z"/><path class="cls-25" d="M146.12,197.54l.36-.29Z"/><path class="cls-13" d="M204,338.91l-.39-.05Z"/><path class="cls-13" d="M197.44,338.86a1,1,0,0,1-.38.08Z"/><path class="cls-22" d="M120.13,191a15,15,0,0,1-5.26-8.06,16.75,16.75,0,0,1-.89-5.46,22.91,22.91,0,0,1,1.73-7.62c.08-.21.36-.34.55-.51a4.35,4.35,0,0,1,2.15.67c2.27,1,4.55,1.91,6.83,2.87l-.42,1.06a8.38,8.38,0,0,0-.48,5.59,14.75,14.75,0,0,0,2,4.08c-.74,1-1.47,1.9-2.23,2.83-1,1.19-1.9,2.37-2.88,3.53A11.86,11.86,0,0,1,120.13,191Z"/><path class="cls-22" d="M127.87,159.61c.1-.08.19-.21.3-.22a31.74,31.74,0,0,1,3.6-.49,18.48,18.48,0,0,1,11.89,3.68,19.6,19.6,0,0,1,5.48,6.38,7,7,0,0,1,.43,1.46c-2.48.73-5,1.48-7.45,2.17a10.59,10.59,0,0,1-1.87.19c-.57-.51-1.17-1-1.69-1.54a8.17,8.17,0,0,0-3.23-2,9.76,9.76,0,0,0-2.83-.39,4.1,4.1,0,0,0-.18-.73q-1-2.34-2.14-4.67c-.45-1-.93-1.95-1.46-2.89A5.53,5.53,0,0,0,127.87,159.61Z"/><path class="cls-22" d="M149.9,184.36a20.36,20.36,0,0,1-3.94,6.09,18.93,18.93,0,0,1-9.07,5.12,7,7,0,0,1-2.83.37c0-1-.05-1.92-.12-2.87-.05-.7-.21-1.39-.24-2.09,0-1.16,0-2.32,0-3.47a6.1,6.1,0,0,0-.23-1.11,15.29,15.29,0,0,1-1.61-.11A3.74,3.74,0,0,1,131,186c.89,0,1.78,0,2.67,0a7.63,7.63,0,0,0,6.49-4c.29-.48.59-1,.89-1.44,2.47,1.17,4.94,2.35,7.43,3.49A8.65,8.65,0,0,0,149.9,184.36Z"/><path class="cls-26" d="M127.87,159.61a5.53,5.53,0,0,1,.85,1c.53.94,1,1.91,1.46,2.89q1.09,2.33,2.14,4.67a4.1,4.1,0,0,1,.18.73,8.08,8.08,0,0,0-6,2.78c-.39.42-.82.79-1.23,1.19-2.28-1-4.56-1.9-6.83-2.87a4.35,4.35,0,0,0-2.15-.67,3.55,3.55,0,0,1,.27-1.1,18.69,18.69,0,0,1,11-8.55A2.58,2.58,0,0,1,127.87,159.61Z"/><path class="cls-26" d="M131,186a3.74,3.74,0,0,0,.87.34,15.29,15.29,0,0,0,1.61.11,6.1,6.1,0,0,1,.23,1.11c0,1.15,0,2.31,0,3.47,0,.7.19,1.39.24,2.09.07,1,.08,1.91.12,2.87a19.38,19.38,0,0,1-5.73-.36,18.06,18.06,0,0,1-7.48-3.75,5.2,5.2,0,0,1-.72-.88,11.86,11.86,0,0,0,1.1-1c1-1.16,1.93-2.34,2.88-3.53.76-.93,1.49-1.88,2.23-2.83A11.4,11.4,0,0,0,131,186Z"/><path class="cls-26" d="M149.9,184.36a8.65,8.65,0,0,1-1.46-.36c-2.49-1.14-5-2.32-7.43-3.49a6.26,6.26,0,0,1,.15-1.31,6.65,6.65,0,0,0-.16-4.09l-.75-2.33a10.59,10.59,0,0,0,1.87-.19c2.49-.69,5-1.44,7.45-2.17a7.42,7.42,0,0,1,.71,1.33,18.27,18.27,0,0,1,.84,4.7A19.37,19.37,0,0,1,149.9,184.36Z"/><path class="cls-22" d="M120.13,305a15,15,0,0,1-5.26-8.06,16.65,16.65,0,0,1-.89-5.66,23.41,23.41,0,0,1,1.73-7.42c.08-.21.36-.34.55-.51a4.25,4.25,0,0,1,2.15.67c2.27,1,4.55,1.91,6.83,2.87l-.42,1.06a8.36,8.36,0,0,0-.48,5.58,14.81,14.81,0,0,0,2,4.09c-.74.94-1.47,1.89-2.23,2.83-1,1.19-1.9,2.37-2.88,3.53A11.86,11.86,0,0,1,120.13,305Z"/><path class="cls-22" d="M127.87,273.61c.1-.08.19-.21.3-.22a29.63,29.63,0,0,1,3.6-.49,18.48,18.48,0,0,1,11.89,3.68,19.6,19.6,0,0,1,5.48,6.38,7,7,0,0,1,.43,1.46c-2.48.73-5,1.48-7.45,2.17a11.62,11.62,0,0,1-1.87.19c-.57-.51-1.17-1-1.69-1.54a8.15,8.15,0,0,0-3.23-2,10.5,10.5,0,0,0-2.83-.39,4.21,4.21,0,0,0-.18-.72q-1-2.36-2.14-4.67c-.45-1-.93-2-1.46-2.89A5.53,5.53,0,0,0,127.87,273.61Z"/><path class="cls-22" d="M149.9,298.36a20.49,20.49,0,0,1-3.94,6.09,18.92,18.92,0,0,1-9.07,5.11,6.8,6.8,0,0,1-2.83.38c0-1-.05-1.92-.12-2.88-.05-.7-.21-1.39-.24-2.08,0-1.16,0-2.32,0-3.47a5.92,5.92,0,0,0-.22-1.08c-.35-.05-.6-.09-.85-.11a4.86,4.86,0,0,1-.77,0A5.8,5.8,0,0,1,131,300c.89,0,1.78,0,2.67,0a7.6,7.6,0,0,0,6.49-4c.29-.48.59-1,.89-1.44,2.47,1.17,4.94,2.35,7.43,3.49A8.65,8.65,0,0,0,149.9,298.36Z"/><path class="cls-26" d="M127.87,273.61a5.53,5.53,0,0,1,.85,1c.53.94,1,1.91,1.46,2.89q1.09,2.31,2.14,4.67a4.1,4.1,0,0,1,.18.73,8.11,8.11,0,0,0-6,2.77c-.39.42-.82.8-1.23,1.2-2.28-1-4.56-1.9-6.83-2.87a4.25,4.25,0,0,0-2.15-.67,3.48,3.48,0,0,1,.27-1.1,18.65,18.65,0,0,1,11-8.55A2.58,2.58,0,0,1,127.87,273.61Z"/><path class="cls-26" d="M131,300a5.8,5.8,0,0,0,.87.34,4.86,4.86,0,0,0,.77,0c.25,0,.5.06.85.11a5.92,5.92,0,0,1,.22,1.08c0,1.15,0,2.31,0,3.47,0,.69.19,1.38.24,2.08.07,1,.08,1.92.12,2.88a19.38,19.38,0,0,1-5.73-.36,18.06,18.06,0,0,1-7.48-3.75,5.63,5.63,0,0,1-.72-.88,11.86,11.86,0,0,0,1.1-1c1-1.16,1.93-2.34,2.88-3.53.76-.94,1.49-1.89,2.23-2.83A11.65,11.65,0,0,0,131,300Z"/><path class="cls-26" d="M149.9,298.36a8.65,8.65,0,0,1-1.46-.36c-2.49-1.14-5-2.32-7.43-3.49a6.26,6.26,0,0,1,.15-1.31,6.65,6.65,0,0,0-.16-4.09l-.75-2.33a11.62,11.62,0,0,0,1.87-.19c2.49-.69,5-1.44,7.45-2.17a7.42,7.42,0,0,1,.71,1.33,18.27,18.27,0,0,1,.84,4.7A19.37,19.37,0,0,1,149.9,298.36Z"/><path class="cls-22" d="M120.13,248.14a15,15,0,0,1-5.26-8.06,16.55,16.55,0,0,1-.89-5.65,23.29,23.29,0,0,1,1.73-7.42c.08-.22.36-.35.55-.52a4.35,4.35,0,0,1,2.15.67c2.27,1,4.55,1.92,6.83,2.87l-.42,1.06a8.39,8.39,0,0,0-.48,5.59,14.61,14.61,0,0,0,2,4.08c-.74,1-1.47,1.9-2.23,2.84-1,1.18-1.9,2.37-2.88,3.53A10.54,10.54,0,0,1,120.13,248.14Z"/><path class="cls-22" d="M127.87,216.8c.1-.07.19-.2.3-.22a31.74,31.74,0,0,1,3.6-.49,18.43,18.43,0,0,1,11.89,3.69,19.46,19.46,0,0,1,5.48,6.37,7,7,0,0,1,.43,1.46c-2.48.73-5,1.48-7.45,2.17a10.59,10.59,0,0,1-1.87.19c-.57-.51-1.17-1-1.69-1.54a8.24,8.24,0,0,0-3.23-2,10.12,10.12,0,0,0-2.83-.39,4.58,4.58,0,0,0-.18-.73q-1-2.34-2.14-4.67c-.45-1-.93-1.95-1.46-2.89A5.53,5.53,0,0,0,127.87,216.8Z"/><path class="cls-22" d="M149.9,241.55a20.36,20.36,0,0,1-3.94,6.09,18.93,18.93,0,0,1-9.07,5.12,7.14,7.14,0,0,1-2.83.38c0-1-.05-1.93-.12-2.88-.05-.7-.21-1.39-.24-2.09,0-1.15,0-2.31,0-3.47a5.81,5.81,0,0,0-.22-1.07c-.35,0-.6-.1-.85-.12a6.49,6.49,0,0,1-.77,0,7.12,7.12,0,0,1-.87-.34c.89,0,1.78,0,2.67,0a7.64,7.64,0,0,0,6.49-4c.29-.49.59-1,.89-1.45,2.47,1.17,4.94,2.35,7.43,3.49A7.09,7.09,0,0,0,149.9,241.55Z"/><path class="cls-26" d="M127.87,216.8a5.53,5.53,0,0,1,.85,1c.53.94,1,1.91,1.46,2.89q1.09,2.33,2.14,4.67a4.58,4.58,0,0,1,.18.73,8.12,8.12,0,0,0-6,2.78c-.39.42-.82.79-1.23,1.19-2.28-.95-4.56-1.9-6.83-2.87a4.35,4.35,0,0,0-2.15-.67,3.55,3.55,0,0,1,.27-1.1,18.67,18.67,0,0,1,11-8.54A2.6,2.6,0,0,1,127.87,216.8Z"/><path class="cls-26" d="M131,243.15a7.12,7.12,0,0,0,.87.34,6.49,6.49,0,0,0,.77,0c.25,0,.5.07.85.12a5.81,5.81,0,0,1,.22,1.07c0,1.16,0,2.32,0,3.47,0,.7.19,1.39.24,2.09.07,1,.08,1.92.12,2.88a19.38,19.38,0,0,1-5.73-.36,18.3,18.3,0,0,1-7.48-3.75,5.72,5.72,0,0,1-.72-.89,10.54,10.54,0,0,0,1.1-1c1-1.16,1.93-2.35,2.88-3.53.76-.94,1.49-1.89,2.23-2.84A11.54,11.54,0,0,0,131,243.15Z"/><path class="cls-26" d="M149.9,241.55a7.09,7.09,0,0,1-1.46-.36c-2.49-1.14-5-2.32-7.43-3.49a6.34,6.34,0,0,1,.15-1.31,6.61,6.61,0,0,0-.16-4.08l-.75-2.34a10.59,10.59,0,0,0,1.87-.19c2.49-.69,5-1.44,7.45-2.17a7.18,7.18,0,0,1,.71,1.34,18.12,18.12,0,0,1,.84,4.7A19.29,19.29,0,0,1,149.9,241.55Z"/><path class="cls-22" d="M185.47,217.22a7.38,7.38,0,0,1,1.53-.68,17.57,17.57,0,0,1,7.77,0,18.89,18.89,0,0,1,7,3.08,20.56,20.56,0,0,1,5.85,6.76,5.87,5.87,0,0,1,.34,1.28,15.91,15.91,0,0,0-1.68.28c-1.28.34-2.54.77-3.82,1.12s-2.56.63-3.84.95c-.52-.47-1.06-.9-1.54-1.4a7.6,7.6,0,0,0-5.95-2.47l-2.09.06a13.27,13.27,0,0,0-.55-1.79c-.52-1.16-1.18-2.25-1.67-3.42A11,11,0,0,1,185.47,217.22Z"/><path class="cls-22" d="M207.92,242a16.71,16.71,0,0,1-5.91,7.63,19.46,19.46,0,0,1-7.89,3.39,25.71,25.71,0,0,1-4,.12,14.52,14.52,0,0,1,.33-3.21c.38-1.54.57-3.12.8-4.69a7.62,7.62,0,0,0-.05-1.44l-1.86-.64c.9,0,1.8,0,2.7,0a7.52,7.52,0,0,0,1.7-.26,7.77,7.77,0,0,0,4.84-3.83,3.23,3.23,0,0,1,.49-.56,6.57,6.57,0,0,1,1.29.31c1.94.87,3.84,1.79,5.77,2.66A16.57,16.57,0,0,0,207.92,242Z"/><path class="cls-22" d="M177,246.59c-.79-.3-1.1-1-1.51-1.67a18.48,18.48,0,0,1-3.11-10.65,15.83,15.83,0,0,1,1.54-6.64,4.63,4.63,0,0,1,.93.15c1.22.51,2.43,1.07,3.65,1.6,1.44.62,2.9,1.22,4.35,1.84-.09.63-.15,1.26-.29,1.88a7.11,7.11,0,0,0,.47,4.68c.5,1,1.12,2,1.69,3-1.91,1.59-3.83,3.17-5.72,4.78A3.73,3.73,0,0,1,177,246.59Z"/><path class="cls-26" d="M182.84,231.22c-1.45-.62-2.91-1.22-4.35-1.84-1.22-.53-2.43-1.09-3.65-1.6a4.63,4.63,0,0,0-.93-.15,10.23,10.23,0,0,1,2.27-4.15,17.47,17.47,0,0,1,8.16-6.09,5.22,5.22,0,0,1,1.13-.17,11,11,0,0,0,1.31,3.73c.49,1.17,1.15,2.26,1.67,3.42a13.27,13.27,0,0,1,.55,1.79,4.22,4.22,0,0,1-.67.34,7.51,7.51,0,0,0-3.43,2.27C184.2,229.57,183.53,230.4,182.84,231.22Z"/><path class="cls-26" d="M207.92,242a16.57,16.57,0,0,1-1.82-.55c-1.93-.87-3.83-1.79-5.77-2.66a6.57,6.57,0,0,0-1.29-.31,18.42,18.42,0,0,1,.42-1.85,6.94,6.94,0,0,0-.16-4.48c-.25-.72-.48-1.45-.72-2.17,1.28-.32,2.57-.61,3.84-.95s2.54-.78,3.82-1.12a15.91,15.91,0,0,1,1.68-.28,8.12,8.12,0,0,1,.71,1.33,19.09,19.09,0,0,1,.85,5.26,18.37,18.37,0,0,1-1.24,7.31A2.44,2.44,0,0,1,207.92,242Z"/><path class="cls-26" d="M177,246.59a3.73,3.73,0,0,0,2-1c1.89-1.61,3.81-3.19,5.72-4.78a11.45,11.45,0,0,0,4.6,2.38l1.86.64a7.62,7.62,0,0,1,.05,1.44c-.23,1.57-.42,3.15-.8,4.69a14.52,14.52,0,0,0-.33,3.21,11.82,11.82,0,0,1-4.86-.77,16.3,16.3,0,0,1-6.94-4.21C177.83,247.66,177.05,247.42,177,246.59Z"/><path class="cls-22" d="M185.47,160a7.43,7.43,0,0,1,1.53-.69,17.71,17.71,0,0,1,7.77,0,18.89,18.89,0,0,1,7,3.08,20.46,20.46,0,0,1,5.85,6.76,5.87,5.87,0,0,1,.34,1.28c-.56.09-1.13.13-1.68.27-1.28.35-2.54.78-3.82,1.12s-2.56.64-3.84,1c-.52-.47-1.06-.9-1.54-1.4a7.6,7.6,0,0,0-5.95-2.47L189,169a13.86,13.86,0,0,0-.55-1.8c-.52-1.15-1.18-2.25-1.67-3.41A11.07,11.07,0,0,1,185.47,160Z"/><path class="cls-22" d="M207.92,184.8a16.71,16.71,0,0,1-5.91,7.63,19.31,19.31,0,0,1-7.89,3.38,24.54,24.54,0,0,1-4,.13,14.67,14.67,0,0,1,.33-3.22c.38-1.53.57-3.11.8-4.68a7.62,7.62,0,0,0-.05-1.44l-1.86-.65c.9,0,1.8,0,2.7,0a7,7,0,0,0,1.7-.27,7.72,7.72,0,0,0,4.84-3.82,2.9,2.9,0,0,1,.49-.56,6.57,6.57,0,0,1,1.29.31c1.94.86,3.84,1.79,5.77,2.65A14.69,14.69,0,0,0,207.92,184.8Z"/><path class="cls-22" d="M177,189.4c-.79-.3-1.1-1-1.51-1.67a18.48,18.48,0,0,1-3.11-10.65,15.83,15.83,0,0,1,1.54-6.64,4,4,0,0,1,.93.15c1.22.51,2.43,1.07,3.65,1.59,1.44.63,2.9,1.23,4.35,1.85-.09.62-.15,1.26-.29,1.88a7.11,7.11,0,0,0,.47,4.68c.5,1,1.12,2,1.69,3-1.91,1.59-3.83,3.17-5.72,4.77A3.75,3.75,0,0,1,177,189.4Z"/><path class="cls-26" d="M182.84,174c-1.45-.62-2.91-1.22-4.35-1.85-1.22-.52-2.43-1.08-3.65-1.59a4,4,0,0,0-.93-.15,10.33,10.33,0,0,1,2.27-4.16,17.52,17.52,0,0,1,8.16-6.08,5.22,5.22,0,0,1,1.13-.17,11.07,11.07,0,0,0,1.31,3.73c.49,1.16,1.15,2.26,1.67,3.41A13.86,13.86,0,0,1,189,169a5.26,5.26,0,0,1-.67.34,7.49,7.49,0,0,0-3.43,2.26C184.2,172.38,183.53,173.21,182.84,174Z"/><path class="cls-26" d="M207.92,184.8a14.69,14.69,0,0,1-1.82-.56c-1.93-.86-3.83-1.79-5.77-2.65a6.57,6.57,0,0,0-1.29-.31,18.42,18.42,0,0,1,.42-1.85,7,7,0,0,0-.16-4.49c-.25-.72-.48-1.44-.72-2.16,1.28-.32,2.57-.61,3.84-1s2.54-.77,3.82-1.12c.55-.14,1.12-.18,1.68-.27a8.12,8.12,0,0,1,.71,1.33,19,19,0,0,1,.85,5.26,18.37,18.37,0,0,1-1.24,7.31A2.44,2.44,0,0,1,207.92,184.8Z"/><path class="cls-26" d="M177,189.4a3.75,3.75,0,0,0,2-1.05c1.89-1.6,3.81-3.18,5.72-4.77a11.3,11.3,0,0,0,4.6,2.37l1.86.65a7.62,7.62,0,0,1,.05,1.44c-.23,1.57-.42,3.15-.8,4.68a14.67,14.67,0,0,0-.33,3.22,11.82,11.82,0,0,1-4.86-.77,16.23,16.23,0,0,1-6.94-4.22C177.83,190.47,177.05,190.23,177,189.4Z"/><path class="cls-22" d="M185.47,274a6.94,6.94,0,0,1,1.53-.69,17.71,17.71,0,0,1,7.77,0,19.08,19.08,0,0,1,7,3.09,20.36,20.36,0,0,1,5.85,6.76,5.73,5.73,0,0,1,.34,1.28,13.66,13.66,0,0,0-1.68.27c-1.28.35-2.54.77-3.82,1.12s-2.56.64-3.84,1c-.52-.47-1.06-.91-1.54-1.41a7.62,7.62,0,0,0-5.95-2.46L189,283a13.86,13.86,0,0,0-.55-1.8c-.52-1.15-1.18-2.25-1.67-3.42A11,11,0,0,1,185.47,274Z"/><path class="cls-22" d="M207.92,298.8a16.71,16.71,0,0,1-5.91,7.63,19.44,19.44,0,0,1-7.89,3.38,24.54,24.54,0,0,1-4,.13,14.67,14.67,0,0,1,.33-3.22c.38-1.53.57-3.11.8-4.68a7.62,7.62,0,0,0-.05-1.44l-1.86-.65c.9,0,1.8,0,2.7,0a7,7,0,0,0,1.7-.26,7.79,7.79,0,0,0,4.84-3.82,3.29,3.29,0,0,1,.49-.57,6.57,6.57,0,0,1,1.29.31c1.94.87,3.84,1.8,5.77,2.66A14.69,14.69,0,0,0,207.92,298.8Z"/><path class="cls-22" d="M177,303.39c-.79-.29-1.1-1-1.51-1.67a18.45,18.45,0,0,1-3.11-10.65,15.78,15.78,0,0,1,1.54-6.63,3.55,3.55,0,0,1,.93.15c1.22.51,2.43,1.07,3.65,1.59,1.44.62,2.9,1.23,4.35,1.84-.09.63-.15,1.27-.29,1.89a7.08,7.08,0,0,0,.47,4.67c.5,1,1.12,2,1.69,3-1.91,1.59-3.83,3.16-5.72,4.77A3.66,3.66,0,0,1,177,303.39Z"/><path class="cls-26" d="M182.84,288c-1.45-.61-2.91-1.22-4.35-1.84-1.22-.52-2.43-1.08-3.65-1.59a3.55,3.55,0,0,0-.93-.15,10.27,10.27,0,0,1,2.27-4.16,17.45,17.45,0,0,1,8.16-6.08,5.22,5.22,0,0,1,1.13-.17,11,11,0,0,0,1.31,3.72c.49,1.17,1.15,2.27,1.67,3.42A13.86,13.86,0,0,1,189,283a4.17,4.17,0,0,1-.67.33,7.59,7.59,0,0,0-3.43,2.27C184.2,286.38,183.53,287.2,182.84,288Z"/><path class="cls-26" d="M207.92,298.8a14.69,14.69,0,0,1-1.82-.56c-1.93-.86-3.83-1.79-5.77-2.66a6.57,6.57,0,0,0-1.29-.31c.14-.61.22-1.25.42-1.85a7,7,0,0,0-.16-4.48c-.25-.72-.48-1.44-.72-2.16,1.28-.32,2.57-.61,3.84-1s2.54-.77,3.82-1.12a13.66,13.66,0,0,1,1.68-.27,8,8,0,0,1,.71,1.32,19.1,19.1,0,0,1,.85,5.27,18.37,18.37,0,0,1-1.24,7.31A2.79,2.79,0,0,1,207.92,298.8Z"/><path class="cls-26" d="M177,303.39a3.66,3.66,0,0,0,2-1c1.89-1.61,3.81-3.18,5.72-4.77a11.55,11.55,0,0,0,4.6,2.37l1.86.65a7.62,7.62,0,0,1,.05,1.44c-.23,1.57-.42,3.15-.8,4.68a14.67,14.67,0,0,0-.33,3.22,12.16,12.16,0,0,1-4.86-.77,16.32,16.32,0,0,1-6.94-4.22C177.83,304.47,177.05,304.22,177,303.39Z"/><path class="cls-27" d="M140.25,172.78l.75,2.33a6.65,6.65,0,0,1,.16,4.09,6.26,6.26,0,0,0-.15,1.31c-.3.48-.6,1-.89,1.44a7.63,7.63,0,0,1-6.49,4c-.89,0-1.78,0-2.67,0a11.4,11.4,0,0,1-4.62-2.38,14.75,14.75,0,0,1-2-4.08,8.38,8.38,0,0,1,.48-5.59l.42-1.06c.41-.4.84-.77,1.23-1.19a8.08,8.08,0,0,1,6-2.78,9.76,9.76,0,0,1,2.83.39,8.17,8.17,0,0,1,3.23,2C139.08,171.79,139.68,172.27,140.25,172.78Z"/><path class="cls-27" d="M140.25,286.78l.75,2.33a6.65,6.65,0,0,1,.16,4.09,6.26,6.26,0,0,0-.15,1.31c-.3.48-.6,1-.89,1.44a7.6,7.6,0,0,1-6.49,4c-.89,0-1.78,0-2.67,0a11.65,11.65,0,0,1-4.62-2.38,14.81,14.81,0,0,1-2-4.09,8.36,8.36,0,0,1,.48-5.58l.42-1.06c.41-.4.84-.78,1.23-1.2a8.11,8.11,0,0,1,6-2.77,10.11,10.11,0,0,1,2.83.38,8.15,8.15,0,0,1,3.23,2C139.08,285.79,139.68,286.27,140.25,286.78Z"/><path class="cls-27" d="M140.25,230l.75,2.34a6.61,6.61,0,0,1,.16,4.08,6.34,6.34,0,0,0-.15,1.31c-.3.48-.6,1-.89,1.45a7.64,7.64,0,0,1-6.49,4c-.89,0-1.78,0-2.67,0a11.54,11.54,0,0,1-4.62-2.39,14.61,14.61,0,0,1-2-4.08,8.39,8.39,0,0,1,.48-5.59l.42-1.06c.41-.4.84-.77,1.23-1.19a8.12,8.12,0,0,1,6-2.78,10.12,10.12,0,0,1,2.83.39,8.24,8.24,0,0,1,3.23,2C139.08,229,139.68,229.46,140.25,230Z"/><path class="cls-27" d="M189.31,243.15a11.45,11.45,0,0,1-4.6-2.38c-.57-1-1.19-2-1.69-3a7.11,7.11,0,0,1-.47-4.68c.14-.62.2-1.25.29-1.88.69-.82,1.36-1.65,2.06-2.45a7.51,7.51,0,0,1,3.43-2.27,4.22,4.22,0,0,0,.67-.34l2.09-.06a7.6,7.6,0,0,1,5.95,2.47c.48.5,1,.93,1.54,1.4.24.72.47,1.45.72,2.17a6.94,6.94,0,0,1,.16,4.48,18.42,18.42,0,0,0-.42,1.85,3.23,3.23,0,0,0-.49.56,7.77,7.77,0,0,1-4.84,3.83,7.52,7.52,0,0,1-1.7.26C191.11,243.16,190.21,243.14,189.31,243.15Z"/><path class="cls-27" d="M189.31,186a11.3,11.3,0,0,1-4.6-2.37c-.57-1-1.19-2-1.69-3a7.11,7.11,0,0,1-.47-4.68c.14-.62.2-1.26.29-1.88.69-.82,1.36-1.65,2.06-2.46a7.49,7.49,0,0,1,3.43-2.26A5.26,5.26,0,0,0,189,169l2.09-.06a7.6,7.6,0,0,1,5.95,2.47c.48.5,1,.93,1.54,1.4.24.72.47,1.44.72,2.16a7,7,0,0,1,.16,4.49,18.42,18.42,0,0,0-.42,1.85,2.9,2.9,0,0,0-.49.56,7.72,7.72,0,0,1-4.84,3.82,7,7,0,0,1-1.7.27C191.11,186,190.21,186,189.31,186Z"/><path class="cls-27" d="M189.31,300a11.55,11.55,0,0,1-4.6-2.37c-.57-1-1.19-2-1.69-3a7.08,7.08,0,0,1-.47-4.67c.14-.62.2-1.26.29-1.89.69-.82,1.36-1.64,2.06-2.45a7.59,7.59,0,0,1,3.43-2.27A4.17,4.17,0,0,0,189,283l2.09-.06a7.62,7.62,0,0,1,5.95,2.46c.48.5,1,.94,1.54,1.41.24.72.47,1.44.72,2.16a7,7,0,0,1,.16,4.48c-.2.6-.28,1.24-.42,1.85a3.29,3.29,0,0,0-.49.57,7.79,7.79,0,0,1-4.84,3.82,7,7,0,0,1-1.7.26C191.11,300,190.21,300,189.31,300Z"/></g></g></svg>